<svg width="76" height="76" viewBox="0 0 76 76" fill="none" xmlns="http://www.w3.org/2000/svg">
<path fill-rule="evenodd" clip-rule="evenodd" d="M48.2229 15.7148H58.0322L26.4497 59.9479H16.8032L48.2229 15.7148ZM36.6992 28.7488L27.4547 15.7148H17.6072L31.8759 35.8583L36.6992 28.7488ZM34.2809 28.774L31.8407 32.3709L21.4499 17.7019H26.4279L34.2809 28.774ZM20.6521 57.9608H25.4269L54.1718 17.7019H49.2488L20.6521 57.9608Z" fill="white"/>
<path fill-rule="evenodd" clip-rule="evenodd" d="M50.3783 58.0702H55.1487L43.9555 42.1758L41.4786 45.7143L50.3783 58.0702ZM39.0415 45.7307L49.3606 60.0573H58.9785L43.9506 38.7177L39.0415 45.7307Z" fill="url(#paint0_linear_2352_29168)"/>
<path fill-rule="evenodd" clip-rule="evenodd" d="M38.4237 7.34073C38.4237 7.04677 38.1854 6.80847 37.8915 6.80847C37.5975 6.80847 37.3592 7.04677 37.3592 7.34073V7.37442C37.3592 7.66838 37.5975 7.90668 37.8915 7.90668C38.1854 7.90668 38.4237 7.66838 38.4237 7.37442V7.34073ZM38.4237 12.7646C38.4237 12.4706 38.1854 12.2323 37.8915 12.2323C37.5975 12.2323 37.3592 12.4706 37.3592 12.7646V12.8319C37.3592 13.1259 37.5975 13.3642 37.8915 13.3642C38.1854 13.3642 38.4237 13.1259 38.4237 12.8319V12.7646ZM38.4237 18.2221C38.4237 17.9281 38.1854 17.6898 37.8915 17.6898C37.5975 17.6898 37.3592 17.9281 37.3592 18.2221V18.2894C37.3592 18.5834 37.5975 18.8217 37.8915 18.8217C38.1854 18.8217 38.4237 18.5834 38.4237 18.2894V18.2221ZM38.4237 23.6796C38.4237 23.3856 38.1854 23.1473 37.8915 23.1473C37.5975 23.1473 37.3592 23.3856 37.3592 23.6796V23.7133C37.3592 24.0072 37.5975 24.2455 37.8915 24.2455C38.1854 24.2455 38.4237 24.0072 38.4237 23.7133V23.6796ZM38.4237 50.6054C38.4237 50.3115 38.1854 50.0732 37.8915 50.0732C37.5975 50.0732 37.3592 50.3115 37.3592 50.6054V50.6414C37.3592 50.9353 37.5975 51.1736 37.8915 51.1736C38.1854 51.1736 38.4237 50.9353 38.4237 50.6414V50.6054ZM38.4237 56.3935C38.4237 56.0995 38.1854 55.8612 37.8915 55.8612C37.5975 55.8612 37.3592 56.0995 37.3592 56.3935V56.4654C37.3592 56.7593 37.5975 56.9976 37.8915 56.9976C38.1854 56.9976 38.4237 56.7593 38.4237 56.4654V56.3935ZM38.4237 62.2175C38.4237 61.9235 38.1854 61.6852 37.8915 61.6852C37.5975 61.6852 37.3592 61.9235 37.3592 62.2175V62.2894C37.3592 62.5833 37.5975 62.8216 37.8915 62.8216C38.1854 62.8216 38.4237 62.5833 38.4237 62.2894V62.2175ZM38.4237 68.0415C38.4237 67.7475 38.1854 67.5092 37.8915 67.5092C37.5975 67.5092 37.3592 67.7475 37.3592 68.0415V68.1134C37.3592 68.4074 37.5975 68.6457 37.8915 68.6457C38.1854 68.6457 38.4237 68.4074 38.4237 68.1134V68.0415ZM38.4237 73.8655C38.4237 73.5715 38.1854 73.3332 37.8915 73.3332C37.5975 73.3332 37.3592 73.5715 37.3592 73.8655V73.9015C37.3592 74.1954 37.5975 74.4337 37.8915 74.4337C38.1854 74.4337 38.4237 74.1954 38.4237 73.9015V73.8655ZM74.4101 37.9151C74.4101 38.209 74.1718 38.4473 73.8778 38.4473H73.8456C73.5517 38.4473 73.3134 38.209 73.3134 37.9151C73.3134 37.6211 73.5517 37.3828 73.8456 37.3828H73.8778C74.1718 37.3828 74.4101 37.6211 74.4101 37.9151ZM69.2253 37.9151C69.2253 38.209 68.987 38.4473 68.6931 38.4473H68.6286C68.3347 38.4473 68.0964 38.209 68.0964 37.9151C68.0964 37.6211 68.3347 37.3828 68.6286 37.3828H68.6931C68.987 37.3828 69.2253 37.6211 69.2253 37.9151ZM64.0084 37.9151C64.0084 38.209 63.7701 38.4473 63.4761 38.4473H63.4117C63.1177 38.4473 62.8794 38.209 62.8794 37.9151C62.8794 37.6211 63.1177 37.3828 63.4117 37.3828H63.4761C63.7701 37.3828 64.0084 37.6211 64.0084 37.9151ZM58.7914 37.9151C58.7914 38.209 58.5531 38.4473 58.2591 38.4473H58.1947C57.9008 38.4473 57.6625 38.209 57.6625 37.9151C57.6625 37.6211 57.9008 37.3828 58.1947 37.3828H58.2591C58.5531 37.3828 58.7914 37.6211 58.7914 37.9151ZM53.5744 37.9151C53.5744 38.209 53.3361 38.4473 53.0422 38.4473H52.9778C52.6838 38.4473 52.4455 38.209 52.4455 37.9151C52.4455 37.6211 52.6838 37.3828 52.9778 37.3828H53.0422C53.3361 37.3828 53.5744 37.6211 53.5744 37.9151ZM48.3575 37.9151C48.3575 38.209 48.1192 38.4473 47.8252 38.4473H47.793C47.499 38.4473 47.2607 38.209 47.2607 37.9151C47.2607 37.6211 47.499 37.3828 47.793 37.3828H47.8252C48.1192 37.3828 48.3575 37.6211 48.3575 37.9151ZM28.2176 38.4473C28.5116 38.4473 28.7499 38.209 28.7499 37.9151C28.7499 37.6211 28.5116 37.3828 28.2176 37.3828H28.1851C27.8912 37.3828 27.6529 37.6211 27.6529 37.9151C27.6529 38.209 27.8912 38.4473 28.1851 38.4473H28.2176ZM22.9875 38.4473C23.2815 38.4473 23.5198 38.209 23.5198 37.9151C23.5198 37.6211 23.2815 37.3828 22.9875 37.3828H22.9226C22.6286 37.3828 22.3903 37.6211 22.3903 37.9151C22.3903 38.209 22.6286 38.4473 22.9226 38.4473H22.9875ZM17.725 38.4473C18.0189 38.4473 18.2572 38.209 18.2572 37.9151C18.2572 37.6211 18.0189 37.3828 17.725 37.3828H17.66C17.3661 37.3828 17.1278 37.6211 17.1278 37.9151C17.1278 38.209 17.3661 38.4473 17.66 38.4473H17.725ZM12.4624 38.4473C12.7564 38.4473 12.9947 38.209 12.9947 37.9151C12.9947 37.6211 12.7564 37.3828 12.4624 37.3828H12.3974C12.1035 37.3828 11.8652 37.6211 11.8652 37.9151C11.8652 38.209 12.1035 38.4473 12.3974 38.4473H12.4624ZM7.19986 38.4473C7.49382 38.4473 7.73212 38.209 7.73212 37.9151C7.73212 37.6211 7.49382 37.3828 7.19986 37.3828H7.13489C6.84093 37.3828 6.60263 37.6211 6.60263 37.9151C6.60263 38.209 6.84093 38.4473 7.13489 38.4473H7.19986ZM1.9373 38.4473C2.23126 38.4473 2.46956 38.209 2.46956 37.9151C2.46956 37.6211 2.23126 37.3828 1.9373 37.3828H1.90482C1.61086 37.3828 1.37256 37.6211 1.37256 37.9151C1.37256 38.209 1.61086 38.4473 1.90482 38.4473H1.9373Z" fill="#55555E"/>
<path fill-rule="evenodd" clip-rule="evenodd" d="M37.8555 1.39655H37.9267C38.2206 1.39683 38.4587 1.63535 38.4584 1.92931C38.4581 2.22327 38.2196 2.46134 37.9257 2.46106H37.8565C37.5626 2.46134 37.3241 2.22327 37.3238 1.92931C37.3235 1.63535 37.5616 1.39683 37.8555 1.39655ZM32.8248 2.27894C32.8701 2.56938 32.6714 2.84159 32.381 2.88695L32.3129 2.89765C32.0226 2.94357 31.75 2.74542 31.704 2.45507C31.6581 2.16472 31.8563 1.89212 32.1466 1.8462L32.2168 1.83518C32.5072 1.78982 32.7794 1.9885 32.8248 2.27894ZM42.9574 2.27894C43.0028 1.9885 43.275 1.78982 43.5654 1.83518L43.6356 1.8462C43.9259 1.89212 44.1241 2.16472 44.0782 2.45507C44.0322 2.74542 43.7596 2.94357 43.4693 2.89765L43.4012 2.88695C43.1108 2.84159 42.9121 2.56938 42.9574 2.27894ZM48.4667 3.50504C48.5572 3.22537 48.8573 3.07202 49.137 3.16254L49.2044 3.18443C49.4839 3.27549 49.6367 3.57589 49.5456 3.85539C49.4545 4.13488 49.1541 4.28764 48.8746 4.19658L48.8092 4.17533C48.5295 4.08482 48.3762 3.78472 48.4667 3.50504ZM27.3155 3.50505C27.406 3.78472 27.2527 4.08482 26.973 4.17533L26.9076 4.19658C26.6281 4.28764 26.3277 4.13488 26.2366 3.85539C26.1455 3.57589 26.2983 3.27549 26.5778 3.18443L26.6452 3.16254C26.9249 3.07202 27.225 3.22537 27.3155 3.50505ZM53.7134 5.58369C53.8468 5.32175 54.1673 5.21755 54.4293 5.35096L54.4923 5.38315C54.754 5.51707 54.8576 5.83777 54.7236 6.09945C54.5897 6.36113 54.269 6.4647 54.0074 6.33078L53.9462 6.29953C53.6842 6.16612 53.58 5.84563 53.7134 5.58369ZM22.0688 5.58369C22.2022 5.84563 22.098 6.16612 21.836 6.29954L21.7748 6.33078C21.5132 6.4647 21.1925 6.36113 21.0585 6.09945C20.9246 5.83777 21.0282 5.51707 21.2899 5.38315L21.3529 5.35097C21.6148 5.21755 21.9353 5.32175 22.0688 5.58369ZM17.2138 8.46041C17.3865 8.69825 17.3337 9.0311 17.0959 9.20385L17.0403 9.24427C16.8028 9.41747 16.4699 9.36534 16.2967 9.12783C16.1235 8.89032 16.1756 8.55737 16.4131 8.38417L16.4703 8.34254C16.7082 8.16979 17.041 8.22257 17.2138 8.46041ZM58.5684 8.46041C58.7412 8.22257 59.074 8.16979 59.3119 8.34254L59.3691 8.38417C59.6066 8.55737 59.6587 8.89032 59.4855 9.12783C59.3123 9.36534 58.9793 9.41747 58.7418 9.24427L58.6863 9.20385C58.4485 9.0311 58.3957 8.69825 58.5684 8.46041ZM12.8671 12.0597C13.0747 12.2678 13.0744 12.6048 12.8663 12.8124L12.8177 12.861C12.6101 13.0691 12.2731 13.0694 12.065 12.8617C11.857 12.6541 11.8566 12.3171 12.0643 12.109L12.1143 12.059C12.3224 11.8513 12.6594 11.8516 12.8671 12.0597ZM62.9151 12.0597C63.1228 11.8516 63.4598 11.8513 63.6679 12.059L63.7179 12.109C63.9256 12.3171 63.9252 12.6541 63.7172 12.8617C63.5091 13.0694 63.1721 13.0691 62.9645 12.861L62.9159 12.8124C62.7078 12.6048 62.7075 12.2678 62.9151 12.0597ZM9.13314 16.2914C9.37065 16.4646 9.42278 16.7975 9.24958 17.035L9.20916 17.0906C9.03641 17.3284 8.70356 17.3812 8.46572 17.2084C8.22788 17.0357 8.1751 16.7028 8.34785 16.465L8.38948 16.4078C8.56268 16.1703 8.89563 16.1182 9.13314 16.2914ZM66.649 16.2914C66.8866 16.1182 67.2195 16.1703 67.3927 16.4078L67.4343 16.465C67.6071 16.7028 67.5543 17.0357 67.3165 17.2084C67.0786 17.3812 66.7458 17.3284 66.573 17.0906L66.5326 17.035C66.3594 16.7975 66.4115 16.4646 66.649 16.2914ZM69.6774 21.0532C69.9391 20.9193 70.2598 21.0229 70.3937 21.2846L70.4259 21.3476C70.5593 21.6095 70.4551 21.93 70.1932 22.0634C69.9313 22.1969 69.6108 22.0927 69.4773 21.8307L69.4461 21.7695C69.3122 21.5078 69.4157 21.1872 69.6774 21.0532ZM6.10476 21.0532C6.36644 21.1872 6.47001 21.5079 6.33609 21.7695L6.30484 21.8307C6.17143 22.0927 5.85094 22.1969 5.589 22.0634C5.32706 21.93 5.22286 21.6095 5.35627 21.3476L5.38846 21.2846C5.52238 21.0229 5.84308 20.9193 6.10476 21.0532ZM3.8607 26.2313C4.14019 26.3224 4.29295 26.6228 4.20189 26.9023L4.18064 26.9677C4.09013 27.2474 3.79003 27.4007 3.51035 27.3102C3.23068 27.2197 3.07733 26.9196 3.16785 26.6399L3.18974 26.5725C3.2808 26.293 3.5812 26.1402 3.8607 26.2313ZM71.9215 26.2313C72.201 26.1402 72.5014 26.293 72.5925 26.5725L72.6143 26.6399C72.7049 26.9196 72.5515 27.2197 72.2718 27.3102C71.9922 27.4007 71.6921 27.2474 71.6015 26.9677L71.5803 26.9023C71.4892 26.6228 71.642 26.3224 71.9215 26.2313ZM2.46038 31.6987C2.75073 31.7446 2.94888 32.0172 2.90296 32.3076L2.89226 32.3757C2.8469 32.6661 2.57469 32.8648 2.28425 32.8195C1.99381 32.7741 1.79513 32.5019 1.84049 32.2115L1.85151 32.1413C1.89743 31.8509 2.17003 31.6528 2.46038 31.6987ZM73.3218 31.6987C73.6122 31.6528 73.8848 31.851 73.9307 32.1413L73.9417 32.2115C73.9871 32.5019 73.7884 32.7741 73.4979 32.8195C73.2075 32.8648 72.9353 32.6661 72.8899 32.3757L72.8792 32.3076C72.8333 32.0172 73.0315 31.7446 73.3218 31.6987ZM1.93462 37.3185C2.22858 37.3187 2.46665 37.5573 2.46637 37.8512V37.9203C2.46665 38.2143 2.22858 38.4528 1.93462 38.4531C1.64066 38.4534 1.40214 38.2153 1.40186 37.9214V37.8502C1.40214 37.5563 1.64066 37.3182 1.93462 37.3185ZM73.8476 37.3185C74.1415 37.3182 74.3801 37.5563 74.3803 37.8502V37.9214C74.3801 38.2153 74.1415 38.4534 73.8476 38.4531C73.5536 38.4528 73.3155 38.2143 73.3158 37.9203V37.8512C73.3155 37.5573 73.5536 37.3187 73.8476 37.3185ZM2.28425 42.9521C2.57469 42.9068 2.8469 43.1054 2.89226 43.3959L2.90296 43.464C2.94888 43.7543 2.75073 44.0269 2.46038 44.0728C2.17003 44.1188 1.89743 43.9206 1.85151 43.6303L1.84049 43.5601C1.79513 43.2697 1.99381 42.9975 2.28425 42.9521ZM73.4979 42.9521C73.7884 42.9975 73.9871 43.2697 73.9417 43.5601L73.9307 43.6303C73.8848 43.9206 73.6122 44.1188 73.3218 44.0728C73.0315 44.0269 72.8333 43.7543 72.8792 43.464L72.8899 43.3959C72.9353 43.1054 73.2075 42.9068 73.4979 42.9521ZM3.51036 48.4614C3.79003 48.3709 4.09013 48.5242 4.18064 48.8039L4.20189 48.8693C4.29295 49.1488 4.14019 49.4492 3.8607 49.5403C3.5812 49.6313 3.2808 49.4786 3.18974 49.1991L3.16785 49.1317C3.07733 48.852 3.23068 48.5519 3.51036 48.4614ZM72.2718 48.4614C72.5515 48.5519 72.7049 48.852 72.6143 49.1317L72.5925 49.1991C72.5014 49.4786 72.201 49.6313 71.9215 49.5403C71.642 49.4492 71.4892 49.1488 71.5803 48.8693L71.6015 48.8039C71.6921 48.5242 71.9922 48.3709 72.2718 48.4614ZM5.589 53.7081C5.85094 53.5747 6.17143 53.6789 6.30485 53.9408L6.33609 54.002C6.47001 54.2637 6.36644 54.5844 6.10476 54.7183C5.84308 54.8523 5.52238 54.7487 5.38846 54.487L5.35628 54.424C5.22286 54.162 5.32706 53.8415 5.589 53.7081ZM70.1932 53.7081C70.4551 53.8415 70.5593 54.162 70.4259 54.424L70.3937 54.487C70.2598 54.7487 69.9391 54.8523 69.6774 54.7183C69.4158 54.5844 69.3122 54.2637 69.4461 54.002L69.4773 53.9408C69.6108 53.6789 69.9313 53.5747 70.1932 53.7081ZM8.46572 58.5631C8.70356 58.3904 9.03641 58.4431 9.20916 58.681L9.24958 58.7365C9.42278 58.974 9.37065 59.307 9.13314 59.4802C8.89563 59.6534 8.56268 59.6013 8.38948 59.3638L8.34785 59.3066C8.1751 59.0687 8.22788 58.7359 8.46572 58.5631ZM67.3165 58.5631C67.5543 58.7359 67.6071 59.0687 67.4343 59.3066L67.3927 59.3638C67.2195 59.6013 66.8866 59.6534 66.649 59.4802C66.4115 59.307 66.3594 58.974 66.5326 58.7365L66.573 58.681C66.7458 58.4431 67.0786 58.3904 67.3165 58.5631ZM12.065 62.9098C12.2731 62.7022 12.6101 62.7025 12.8177 62.9106L12.8663 62.9591C13.0744 63.1668 13.0747 63.5038 12.8671 63.7119C12.6594 63.9199 12.3224 63.9202 12.1143 63.7126L12.0643 63.6626C11.8566 63.4545 11.857 63.1175 12.065 62.9098ZM63.7172 62.9098C63.9252 63.1175 63.9256 63.4545 63.7179 63.6626L63.6679 63.7126C63.4598 63.9202 63.1228 63.9199 62.9151 63.7119C62.7075 63.5038 62.7078 63.1668 62.9159 62.9591L62.9645 62.9106C63.1721 62.7025 63.5091 62.7022 63.7172 62.9098ZM16.2967 66.6437C16.4699 66.4062 16.8028 66.3541 17.0403 66.5273L17.0959 66.5677C17.3337 66.7405 17.3865 67.0733 17.2138 67.3112C17.041 67.549 16.7082 67.6018 16.4703 67.429L16.4131 67.3874C16.1756 67.2142 16.1235 66.8812 16.2967 66.6437ZM59.4855 66.6437C59.6587 66.8812 59.6066 67.2142 59.3691 67.3874L59.3119 67.429C59.074 67.6018 58.7412 67.549 58.5684 67.3112C58.3957 67.0733 58.4485 66.7405 58.6863 66.5677L58.7418 66.5273C58.9793 66.3541 59.3123 66.4062 59.4855 66.6437ZM21.0585 69.6721C21.1925 69.4104 21.5132 69.3069 21.7748 69.4408L21.836 69.472C22.098 69.6055 22.2022 69.9259 22.0688 70.1879C21.9353 70.4498 21.6148 70.554 21.3529 70.4206L21.2899 70.3884C21.0282 70.2545 20.9246 69.9338 21.0585 69.6721ZM54.7236 69.6721C54.8576 69.9338 54.754 70.2545 54.4923 70.3884L54.4293 70.4206C54.1673 70.554 53.8468 70.4498 53.7134 70.1879C53.58 69.9259 53.6842 69.6054 53.9462 69.472L54.0074 69.4408C54.269 69.3069 54.5897 69.4104 54.7236 69.6721ZM26.2366 71.9162C26.3277 71.6367 26.6281 71.4839 26.9076 71.575L26.973 71.5962C27.2527 71.6868 27.406 71.9868 27.3155 72.2665C27.225 72.5462 26.9249 72.6995 26.6452 72.609L26.5778 72.5871C26.2983 72.4961 26.1455 72.1957 26.2366 71.9162ZM49.5456 71.9162C49.6367 72.1957 49.4839 72.4961 49.2044 72.5871L49.137 72.609C48.8573 72.6995 48.5572 72.5462 48.4667 72.2665C48.3762 71.9868 48.5295 71.6868 48.8092 71.5962L48.8746 71.575C49.1541 71.4839 49.4545 71.6367 49.5456 71.9162ZM31.704 73.3165C31.75 73.0262 32.0225 72.828 32.3129 72.8739L32.381 72.8846C32.6714 72.93 32.8701 73.2022 32.8248 73.4926C32.7794 73.7831 32.5072 73.9818 32.2168 73.9364L32.1466 73.9254C31.8563 73.8794 31.6581 73.6068 31.704 73.3165ZM44.0782 73.3165C44.1241 73.6068 43.9259 73.8794 43.6356 73.9254L43.5654 73.9364C43.275 73.9818 43.0028 73.7831 42.9574 73.4926C42.9121 73.2022 43.1108 72.93 43.4012 72.8846L43.4693 72.8739C43.7596 72.828 44.0322 73.0262 44.0782 73.3165ZM37.3238 73.8423C37.3241 73.5483 37.5626 73.3102 37.8565 73.3105H37.9257C38.2196 73.3102 38.4581 73.5483 38.4584 73.8423C38.4587 74.1362 38.2206 74.3747 37.9267 74.375H37.8555C37.5616 74.3747 37.3235 74.1362 37.3238 73.8423Z" fill="white"/>
<path d="M39.0742 73.8428C39.0742 74.496 38.5447 75.0256 37.8914 75.0256C37.2382 75.0256 36.7086 74.496 36.7086 73.8428C36.7086 73.1895 37.2382 72.66 37.8914 72.66C38.5447 72.66 39.0742 73.1895 39.0742 73.8428Z" fill="#6966FF"/>
<path d="M73.8478 39.0687C73.1946 39.0687 72.665 38.5391 72.665 37.8859C72.665 37.2326 73.1946 36.7031 73.8478 36.7031C74.5011 36.7031 75.0306 37.2326 75.0306 37.8859C75.0306 38.5391 74.5011 39.0687 73.8478 39.0687Z" fill="#6966FF"/>
<path d="M39.0742 1.92865C39.0742 2.58189 38.5447 3.11145 37.8914 3.11145C37.2382 3.11145 36.7086 2.58189 36.7086 1.92865C36.7086 1.27541 37.2382 0.745858 37.8914 0.745858C38.5447 0.745858 39.0742 1.27541 39.0742 1.92865Z" fill="#6966FF"/>
<path d="M1.93426 39.0687C1.28102 39.0687 0.751465 38.5391 0.751465 37.8859C0.751465 37.2326 1.28102 36.7031 1.93426 36.7031C2.5875 36.7031 3.11706 37.2326 3.11706 37.8859C3.11706 38.5391 2.5875 39.0687 1.93426 39.0687Z" fill="#6966FF"/>
<defs>
<linearGradient id="paint0_linear_2352_29168" x1="51.5276" y1="56.6985" x2="35.6321" y2="34.8579" gradientUnits="userSpaceOnUse">
<stop stop-color="#6966FF"/>
<stop offset="1" stop-color="#6966FF" stop-opacity="0.36"/>
</linearGradient>
</defs>
</svg>
