<svg width="88" height="88" viewBox="0 0 88 88" fill="none" xmlns="http://www.w3.org/2000/svg">
<rect width="88" height="88" rx="44" fill="white"/>
<path fill-rule="evenodd" clip-rule="evenodd" d="M54.2229 21.7148H64.0322L32.4497 65.9479H22.8032L54.2229 21.7148ZM42.6992 34.7488L33.4547 21.7148H23.6072L37.8759 41.8583L42.6992 34.7488ZM40.2809 34.774L37.8407 38.3709L27.4499 23.7019H32.4279L40.2809 34.774ZM26.6521 63.9608H31.4269L60.1718 23.7019H55.2488L26.6521 63.9608Z" fill="black"/>
<path fill-rule="evenodd" clip-rule="evenodd" d="M56.3783 64.0702H61.1487L49.9555 48.1758L47.4786 51.7143L56.3783 64.0702ZM45.0415 51.7307L55.3606 66.0573H64.9785L49.9506 44.7177L45.0415 51.7307Z" fill="black"/>
<path fill-rule="evenodd" clip-rule="evenodd" d="M44.4237 13.3407C44.4237 13.0468 44.1854 12.8085 43.8915 12.8085C43.5975 12.8085 43.3592 13.0468 43.3592 13.3407V13.3744C43.3592 13.6684 43.5975 13.9067 43.8915 13.9067C44.1854 13.9067 44.4237 13.6684 44.4237 13.3744V13.3407ZM44.4237 18.7646C44.4237 18.4706 44.1854 18.2323 43.8915 18.2323C43.5975 18.2323 43.3592 18.4706 43.3592 18.7646V18.8319C43.3592 19.1259 43.5975 19.3642 43.8915 19.3642C44.1854 19.3642 44.4237 19.1259 44.4237 18.8319V18.7646ZM44.4237 24.2221C44.4237 23.9281 44.1854 23.6898 43.8915 23.6898C43.5975 23.6898 43.3592 23.9281 43.3592 24.2221V24.2894C43.3592 24.5834 43.5975 24.8217 43.8915 24.8217C44.1854 24.8217 44.4237 24.5834 44.4237 24.2894V24.2221ZM44.4237 29.6796C44.4237 29.3856 44.1854 29.1473 43.8915 29.1473C43.5975 29.1473 43.3592 29.3856 43.3592 29.6796V29.7133C43.3592 30.0072 43.5975 30.2455 43.8915 30.2455C44.1854 30.2455 44.4237 30.0072 44.4237 29.7133V29.6796ZM44.4237 56.6054C44.4237 56.3115 44.1854 56.0732 43.8915 56.0732C43.5975 56.0732 43.3592 56.3115 43.3592 56.6054V56.6414C43.3592 56.9353 43.5975 57.1736 43.8915 57.1736C44.1854 57.1736 44.4237 56.9353 44.4237 56.6414V56.6054ZM44.4237 62.3935C44.4237 62.0995 44.1854 61.8612 43.8915 61.8612C43.5975 61.8612 43.3592 62.0995 43.3592 62.3935V62.4654C43.3592 62.7593 43.5975 62.9976 43.8915 62.9976C44.1854 62.9976 44.4237 62.7593 44.4237 62.4654V62.3935ZM44.4237 68.2175C44.4237 67.9235 44.1854 67.6852 43.8915 67.6852C43.5975 67.6852 43.3592 67.9235 43.3592 68.2175V68.2894C43.3592 68.5833 43.5975 68.8216 43.8915 68.8216C44.1854 68.8216 44.4237 68.5833 44.4237 68.2894V68.2175ZM44.4237 74.0415C44.4237 73.7475 44.1854 73.5092 43.8915 73.5092C43.5975 73.5092 43.3592 73.7475 43.3592 74.0415V74.1134C43.3592 74.4074 43.5975 74.6457 43.8915 74.6457C44.1854 74.6457 44.4237 74.4074 44.4237 74.1134V74.0415ZM44.4237 79.8655C44.4237 79.5715 44.1854 79.3332 43.8915 79.3332C43.5975 79.3332 43.3592 79.5715 43.3592 79.8655V79.9015C43.3592 80.1954 43.5975 80.4337 43.8915 80.4337C44.1854 80.4337 44.4237 80.1954 44.4237 79.9015V79.8655ZM80.4101 43.9151C80.4101 44.209 80.1718 44.4473 79.8778 44.4473H79.8456C79.5517 44.4473 79.3134 44.209 79.3134 43.9151C79.3134 43.6211 79.5517 43.3828 79.8456 43.3828H79.8778C80.1718 43.3828 80.4101 43.6211 80.4101 43.9151ZM75.2253 43.9151C75.2253 44.209 74.987 44.4473 74.6931 44.4473H74.6286C74.3347 44.4473 74.0964 44.209 74.0964 43.9151C74.0964 43.6211 74.3347 43.3828 74.6286 43.3828H74.6931C74.987 43.3828 75.2253 43.6211 75.2253 43.9151ZM70.0084 43.9151C70.0084 44.209 69.7701 44.4473 69.4761 44.4473H69.4117C69.1177 44.4473 68.8794 44.209 68.8794 43.9151C68.8794 43.6211 69.1177 43.3828 69.4117 43.3828H69.4761C69.7701 43.3828 70.0084 43.6211 70.0084 43.9151ZM64.7914 43.9151C64.7914 44.209 64.5531 44.4473 64.2591 44.4473H64.1947C63.9008 44.4473 63.6625 44.209 63.6625 43.9151C63.6625 43.6211 63.9008 43.3828 64.1947 43.3828H64.2591C64.5531 43.3828 64.7914 43.6211 64.7914 43.9151ZM59.5744 43.9151C59.5744 44.209 59.3361 44.4473 59.0422 44.4473H58.9778C58.6838 44.4473 58.4455 44.209 58.4455 43.9151C58.4455 43.6211 58.6838 43.3828 58.9778 43.3828H59.0422C59.3361 43.3828 59.5744 43.6211 59.5744 43.9151ZM54.3575 43.9151C54.3575 44.209 54.1192 44.4473 53.8252 44.4473H53.793C53.499 44.4473 53.2607 44.209 53.2607 43.9151C53.2607 43.6211 53.499 43.3828 53.793 43.3828H53.8252C54.1192 43.3828 54.3575 43.6211 54.3575 43.9151ZM34.2176 44.4473C34.5116 44.4473 34.7499 44.209 34.7499 43.9151C34.7499 43.6211 34.5116 43.3828 34.2176 43.3828H34.1851C33.8912 43.3828 33.6529 43.6211 33.6529 43.9151C33.6529 44.209 33.8912 44.4473 34.1851 44.4473H34.2176ZM28.9875 44.4473C29.2815 44.4473 29.5198 44.209 29.5198 43.9151C29.5198 43.6211 29.2815 43.3828 28.9875 43.3828H28.9226C28.6286 43.3828 28.3903 43.6211 28.3903 43.9151C28.3903 44.209 28.6286 44.4473 28.9226 44.4473H28.9875ZM23.725 44.4473C24.0189 44.4473 24.2572 44.209 24.2572 43.9151C24.2572 43.6211 24.0189 43.3828 23.725 43.3828H23.66C23.3661 43.3828 23.1278 43.6211 23.1278 43.9151C23.1278 44.209 23.3661 44.4473 23.66 44.4473H23.725ZM18.4624 44.4473C18.7564 44.4473 18.9947 44.209 18.9947 43.9151C18.9947 43.6211 18.7564 43.3828 18.4624 43.3828H18.3974C18.1035 43.3828 17.8652 43.6211 17.8652 43.9151C17.8652 44.209 18.1035 44.4473 18.3974 44.4473H18.4624ZM13.1999 44.4473C13.4938 44.4473 13.7321 44.209 13.7321 43.9151C13.7321 43.6211 13.4938 43.3828 13.1999 43.3828H13.1349C12.8409 43.3828 12.6026 43.6211 12.6026 43.9151C12.6026 44.209 12.8409 44.4473 13.1349 44.4473H13.1999ZM7.9373 44.4473C8.23126 44.4473 8.46956 44.209 8.46956 43.9151C8.46956 43.6211 8.23126 43.3828 7.9373 43.3828H7.90482C7.61086 43.3828 7.37256 43.6211 7.37256 43.9151C7.37256 44.209 7.61086 44.4473 7.90482 44.4473H7.9373Z" fill="black" fill-opacity="0.3"/>
<path fill-rule="evenodd" clip-rule="evenodd" d="M43.8555 7.39655H43.9267C44.2206 7.39683 44.4587 7.63535 44.4584 7.92931C44.4581 8.22327 44.2196 8.46134 43.9257 8.46106H43.8565C43.5626 8.46134 43.3241 8.22327 43.3238 7.92931C43.3235 7.63535 43.5616 7.39683 43.8555 7.39655ZM38.8248 8.27894C38.8701 8.56938 38.6714 8.84159 38.381 8.88695L38.3129 8.89765C38.0226 8.94357 37.75 8.74542 37.704 8.45507C37.6581 8.16472 37.8563 7.89212 38.1466 7.8462L38.2168 7.83518C38.5072 7.78982 38.7794 7.9885 38.8248 8.27894ZM48.9574 8.27894C49.0028 7.9885 49.275 7.78982 49.5654 7.83518L49.6356 7.8462C49.9259 7.89212 50.1241 8.16472 50.0782 8.45507C50.0322 8.74542 49.7596 8.94357 49.4693 8.89765L49.4012 8.88695C49.1108 8.84159 48.9121 8.56938 48.9574 8.27894ZM54.4667 9.50504C54.5572 9.22537 54.8573 9.07202 55.137 9.16254L55.2044 9.18443C55.4839 9.27549 55.6367 9.57589 55.5456 9.85539C55.4545 10.1349 55.1541 10.2876 54.8746 10.1966L54.8092 10.1753C54.5295 10.0848 54.3762 9.78472 54.4667 9.50504ZM33.3155 9.50505C33.406 9.78472 33.2527 10.0848 32.973 10.1753L32.9076 10.1966C32.6281 10.2876 32.3277 10.1349 32.2366 9.85539C32.1455 9.57589 32.2983 9.27549 32.5778 9.18443L32.6452 9.16254C32.9249 9.07202 33.225 9.22537 33.3155 9.50505ZM59.7134 11.5837C59.8468 11.3217 60.1673 11.2176 60.4293 11.351L60.4923 11.3831C60.754 11.5171 60.8576 11.8378 60.7236 12.0994C60.5897 12.3611 60.269 12.4647 60.0074 12.3308L59.9462 12.2995C59.6842 12.1661 59.58 11.8456 59.7134 11.5837ZM28.0688 11.5837C28.2022 11.8456 28.098 12.1661 27.836 12.2995L27.7748 12.3308C27.5132 12.4647 27.1925 12.3611 27.0585 12.0994C26.9246 11.8378 27.0282 11.5171 27.2899 11.3831L27.3529 11.351C27.6148 11.2176 27.9353 11.3217 28.0688 11.5837ZM23.2138 14.4604C23.3865 14.6983 23.3337 15.0311 23.0959 15.2039L23.0403 15.2443C22.8028 15.4175 22.4699 15.3653 22.2967 15.1278C22.1235 14.8903 22.1756 14.5574 22.4131 14.3842L22.4703 14.3425C22.7082 14.1698 23.041 14.2226 23.2138 14.4604ZM64.5684 14.4604C64.7412 14.2226 65.074 14.1698 65.3119 14.3425L65.3691 14.3842C65.6066 14.5574 65.6587 14.8903 65.4855 15.1278C65.3123 15.3653 64.9793 15.4175 64.7418 15.2443L64.6863 15.2039C64.4485 15.0311 64.3957 14.6983 64.5684 14.4604ZM18.8671 18.0597C19.0747 18.2678 19.0744 18.6048 18.8663 18.8124L18.8177 18.861C18.6101 19.0691 18.2731 19.0694 18.065 18.8617C17.857 18.6541 17.8566 18.3171 18.0643 18.109L18.1143 18.059C18.3224 17.8513 18.6594 17.8516 18.8671 18.0597ZM68.9151 18.0597C69.1228 17.8516 69.4598 17.8513 69.6679 18.059L69.7179 18.109C69.9256 18.3171 69.9252 18.6541 69.7172 18.8617C69.5091 19.0694 69.1721 19.0691 68.9645 18.861L68.9159 18.8124C68.7078 18.6048 68.7075 18.2678 68.9151 18.0597ZM15.1331 22.2914C15.3707 22.4646 15.4228 22.7975 15.2496 23.035L15.2092 23.0906C15.0364 23.3284 14.7036 23.3812 14.4657 23.2084C14.2279 23.0357 14.1751 22.7028 14.3479 22.465L14.3895 22.4078C14.5627 22.1703 14.8956 22.1182 15.1331 22.2914ZM72.649 22.2914C72.8866 22.1182 73.2195 22.1703 73.3927 22.4078L73.4343 22.465C73.6071 22.7028 73.5543 23.0357 73.3165 23.2084C73.0786 23.3812 72.7458 23.3284 72.573 23.0906L72.5326 23.035C72.3594 22.7975 72.4115 22.4646 72.649 22.2914ZM75.6774 27.0532C75.9391 26.9193 76.2598 27.0229 76.3937 27.2846L76.4259 27.3476C76.5593 27.6095 76.4551 27.93 76.1932 28.0634C75.9313 28.1969 75.6108 28.0927 75.4773 27.8307L75.4461 27.7695C75.3122 27.5078 75.4157 27.1872 75.6774 27.0532ZM12.1048 27.0532C12.3664 27.1872 12.47 27.5079 12.3361 27.7695L12.3048 27.8307C12.1714 28.0927 11.8509 28.1969 11.589 28.0634C11.3271 27.93 11.2229 27.6095 11.3563 27.3476L11.3885 27.2846C11.5224 27.0229 11.8431 26.9193 12.1048 27.0532ZM9.8607 32.2313C10.1402 32.3224 10.293 32.6228 10.2019 32.9023L10.1806 32.9677C10.0901 33.2474 9.79003 33.4007 9.51035 33.3102C9.23068 33.2197 9.07733 32.9196 9.16785 32.6399L9.18974 32.5725C9.2808 32.293 9.5812 32.1402 9.8607 32.2313ZM77.9215 32.2313C78.201 32.1402 78.5014 32.293 78.5925 32.5725L78.6143 32.6399C78.7049 32.9196 78.5515 33.2197 78.2718 33.3102C77.9922 33.4007 77.6921 33.2474 77.6015 32.9677L77.5803 32.9023C77.4892 32.6228 77.642 32.3224 77.9215 32.2313ZM8.46038 37.6987C8.75073 37.7446 8.94888 38.0172 8.90296 38.3076L8.89226 38.3757C8.8469 38.6661 8.57469 38.8648 8.28425 38.8195C7.99381 38.7741 7.79513 38.5019 7.84049 38.2115L7.85151 38.1413C7.89743 37.8509 8.17003 37.6528 8.46038 37.6987ZM79.3218 37.6987C79.6122 37.6528 79.8848 37.851 79.9307 38.1413L79.9417 38.2115C79.9871 38.5019 79.7884 38.7741 79.4979 38.8195C79.2075 38.8648 78.9353 38.6661 78.8899 38.3757L78.8792 38.3076C78.8333 38.0172 79.0315 37.7446 79.3218 37.6987ZM7.93462 43.3185C8.22858 43.3187 8.46665 43.5573 8.46637 43.8512V43.9203C8.46665 44.2143 8.22858 44.4528 7.93462 44.4531C7.64066 44.4534 7.40214 44.2153 7.40186 43.9214V43.8502C7.40214 43.5563 7.64066 43.3182 7.93462 43.3185ZM79.8476 43.3185C80.1415 43.3182 80.3801 43.5563 80.3803 43.8502V43.9214C80.3801 44.2153 80.1415 44.4534 79.8476 44.4531C79.5536 44.4528 79.3155 44.2143 79.3158 43.9203V43.8512C79.3155 43.5573 79.5536 43.3187 79.8476 43.3185ZM8.28425 48.9521C8.57469 48.9068 8.8469 49.1054 8.89226 49.3959L8.90296 49.464C8.94888 49.7543 8.75073 50.0269 8.46038 50.0728C8.17003 50.1188 7.89743 49.9206 7.85151 49.6303L7.84049 49.5601C7.79513 49.2697 7.99381 48.9975 8.28425 48.9521ZM79.4979 48.9521C79.7884 48.9975 79.9871 49.2697 79.9417 49.5601L79.9307 49.6303C79.8848 49.9206 79.6122 50.1188 79.3218 50.0728C79.0315 50.0269 78.8333 49.7543 78.8792 49.464L78.8899 49.3959C78.9353 49.1054 79.2075 48.9068 79.4979 48.9521ZM9.51036 54.4614C9.79003 54.3709 10.0901 54.5242 10.1806 54.8039L10.2019 54.8693C10.293 55.1488 10.1402 55.4492 9.8607 55.5403C9.5812 55.6313 9.2808 55.4786 9.18974 55.1991L9.16785 55.1317C9.07733 54.852 9.23068 54.5519 9.51036 54.4614ZM78.2718 54.4614C78.5515 54.5519 78.7049 54.852 78.6143 55.1317L78.5925 55.1991C78.5014 55.4786 78.201 55.6313 77.9215 55.5403C77.642 55.4492 77.4892 55.1488 77.5803 54.8693L77.6015 54.8039C77.6921 54.5242 77.9922 54.3709 78.2718 54.4614ZM11.589 59.7081C11.8509 59.5747 12.1714 59.6789 12.3048 59.9408L12.3361 60.002C12.47 60.2637 12.3664 60.5844 12.1048 60.7183C11.8431 60.8523 11.5224 60.7487 11.3885 60.487L11.3563 60.424C11.2229 60.162 11.3271 59.8415 11.589 59.7081ZM76.1932 59.7081C76.4551 59.8415 76.5593 60.162 76.4259 60.424L76.3937 60.487C76.2598 60.7487 75.9391 60.8523 75.6774 60.7183C75.4158 60.5844 75.3122 60.2637 75.4461 60.002L75.4773 59.9408C75.6108 59.6789 75.9313 59.5747 76.1932 59.7081ZM14.4657 64.5631C14.7036 64.3904 15.0364 64.4431 15.2092 64.681L15.2496 64.7365C15.4228 64.974 15.3707 65.307 15.1331 65.4802C14.8956 65.6534 14.5627 65.6013 14.3895 65.3638L14.3478 65.3066C14.1751 65.0687 14.2279 64.7359 14.4657 64.5631ZM73.3165 64.5631C73.5543 64.7359 73.6071 65.0687 73.4343 65.3066L73.3927 65.3638C73.2195 65.6013 72.8866 65.6534 72.649 65.4802C72.4115 65.307 72.3594 64.974 72.5326 64.7365L72.573 64.681C72.7458 64.4431 73.0786 64.3904 73.3165 64.5631ZM18.065 68.9098C18.2731 68.7022 18.6101 68.7025 18.8177 68.9106L18.8663 68.9591C19.0744 69.1668 19.0747 69.5038 18.8671 69.7119C18.6594 69.9199 18.3224 69.9202 18.1143 69.7126L18.0643 69.6626C17.8566 69.4545 17.857 69.1175 18.065 68.9098ZM69.7172 68.9098C69.9252 69.1175 69.9256 69.4545 69.7179 69.6626L69.6679 69.7126C69.4598 69.9202 69.1228 69.9199 68.9151 69.7119C68.7075 69.5038 68.7078 69.1668 68.9159 68.9591L68.9645 68.9106C69.1721 68.7025 69.5091 68.7022 69.7172 68.9098ZM22.2967 72.6437C22.4699 72.4062 22.8028 72.3541 23.0403 72.5273L23.0959 72.5677C23.3337 72.7405 23.3865 73.0733 23.2138 73.3112C23.041 73.549 22.7082 73.6018 22.4703 73.429L22.4131 73.3874C22.1756 73.2142 22.1235 72.8812 22.2967 72.6437ZM65.4855 72.6437C65.6587 72.8812 65.6066 73.2142 65.3691 73.3874L65.3119 73.429C65.074 73.6018 64.7412 73.549 64.5684 73.3112C64.3957 73.0733 64.4485 72.7405 64.6863 72.5677L64.7418 72.5273C64.9793 72.3541 65.3123 72.4062 65.4855 72.6437ZM27.0585 75.6721C27.1925 75.4104 27.5132 75.3069 27.7748 75.4408L27.836 75.472C28.098 75.6055 28.2022 75.9259 28.0688 76.1879C27.9353 76.4498 27.6148 76.554 27.3529 76.4206L27.2899 76.3884C27.0282 76.2545 26.9246 75.9338 27.0585 75.6721ZM60.7236 75.6721C60.8576 75.9338 60.754 76.2545 60.4923 76.3884L60.4293 76.4206C60.1673 76.554 59.8468 76.4498 59.7134 76.1879C59.58 75.9259 59.6842 75.6054 59.9462 75.472L60.0074 75.4408C60.269 75.3069 60.5897 75.4104 60.7236 75.6721ZM32.2366 77.9162C32.3277 77.6367 32.6281 77.4839 32.9076 77.575L32.973 77.5962C33.2527 77.6868 33.406 77.9868 33.3155 78.2665C33.225 78.5462 32.9249 78.6995 32.6452 78.609L32.5778 78.5871C32.2983 78.4961 32.1455 78.1957 32.2366 77.9162ZM55.5456 77.9162C55.6367 78.1957 55.4839 78.4961 55.2044 78.5871L55.137 78.609C54.8573 78.6995 54.5572 78.5462 54.4667 78.2665C54.3762 77.9868 54.5295 77.6868 54.8092 77.5962L54.8746 77.575C55.1541 77.4839 55.4545 77.6367 55.5456 77.9162ZM37.704 79.3165C37.75 79.0262 38.0225 78.828 38.3129 78.8739L38.381 78.8846C38.6714 78.93 38.8701 79.2022 38.8248 79.4926C38.7794 79.7831 38.5072 79.9818 38.2168 79.9364L38.1466 79.9254C37.8563 79.8794 37.6581 79.6068 37.704 79.3165ZM50.0782 79.3165C50.1241 79.6068 49.9259 79.8794 49.6356 79.9254L49.5654 79.9364C49.275 79.9818 49.0028 79.7831 48.9574 79.4926C48.9121 79.2022 49.1108 78.93 49.4012 78.8846L49.4693 78.8739C49.7596 78.828 50.0322 79.0262 50.0782 79.3165ZM43.3238 79.8423C43.3241 79.5483 43.5626 79.3102 43.8565 79.3105H43.9257C44.2196 79.3102 44.4581 79.5483 44.4584 79.8423C44.4587 80.1362 44.2206 80.3747 43.9267 80.375H43.8555C43.5616 80.3747 43.3235 80.1362 43.3238 79.8423Z" fill="black"/>
<path d="M45.0742 79.8428C45.0742 80.496 44.5447 81.0256 43.8914 81.0256C43.2382 81.0256 42.7086 80.496 42.7086 79.8428C42.7086 79.1895 43.2382 78.66 43.8914 78.66C44.5447 78.66 45.0742 79.1895 45.0742 79.8428Z" fill="black"/>
<path d="M79.8478 45.0687C79.1946 45.0687 78.665 44.5391 78.665 43.8859C78.665 43.2326 79.1946 42.7031 79.8478 42.7031C80.5011 42.7031 81.0306 43.2326 81.0306 43.8859C81.0306 44.5391 80.5011 45.0687 79.8478 45.0687Z" fill="black"/>
<path d="M45.0742 7.92865C45.0742 8.58189 44.5447 9.11145 43.8914 9.11145C43.2382 9.11145 42.7086 8.58189 42.7086 7.92865C42.7086 7.27541 43.2382 6.74586 43.8914 6.74586C44.5447 6.74586 45.0742 7.27541 45.0742 7.92865Z" fill="black"/>
<path d="M7.93426 45.0687C7.28102 45.0687 6.75146 44.5391 6.75146 43.8859C6.75147 43.2326 7.28102 42.7031 7.93426 42.7031C8.5875 42.7031 9.11706 43.2326 9.11706 43.8859C9.11706 44.5391 8.5875 45.0687 7.93426 45.0687Z" fill="black"/>
</svg>
