<svg width="1320" height="720" viewBox="0 0 1320 720" fill="none" xmlns="http://www.w3.org/2000/svg">
<rect x="183.172" y="-28.666" width="24" height="792" stroke="#393953" stroke-opacity="0.3"/>
<rect x="207.172" y="-28.666" width="24" height="792" stroke="#393953" stroke-opacity="0.3"/>
<rect x="231.172" y="-28.666" width="24" height="792" stroke="#393953" stroke-opacity="0.3"/>
<rect x="255.172" y="-28.666" width="24" height="792" stroke="#393953" stroke-opacity="0.3"/>
<rect x="279.172" y="-28.666" width="24" height="792" stroke="#393953" stroke-opacity="0.3"/>
<rect x="303.172" y="-28.666" width="24" height="792" stroke="#393953" stroke-opacity="0.3"/>
<rect x="327.172" y="-28.666" width="24" height="792" stroke="#393953" stroke-opacity="0.3"/>
<rect x="351.172" y="-28.666" width="24" height="792" stroke="#393953" stroke-opacity="0.3"/>
<rect x="375.172" y="-28.666" width="24" height="792" stroke="#393953" stroke-opacity="0.3"/>
<rect x="399.172" y="-28.666" width="24" height="792" stroke="#393953" stroke-opacity="0.3"/>
<rect x="423.172" y="-28.666" width="24" height="792" stroke="#393953" stroke-opacity="0.3"/>
<rect x="447.172" y="-28.666" width="24" height="792" stroke="#393953" stroke-opacity="0.3"/>
<rect x="471.172" y="-28.666" width="24" height="792" stroke="#393953" stroke-opacity="0.3"/>
<rect x="495.172" y="-28.666" width="24" height="792" stroke="#393953" stroke-opacity="0.3"/>
<rect x="519.172" y="-28.666" width="24" height="792" stroke="#393953" stroke-opacity="0.3"/>
<rect x="543.172" y="-28.666" width="24" height="792" stroke="#393953" stroke-opacity="0.3"/>
<rect x="567.172" y="-28.666" width="24" height="792" stroke="#393953" stroke-opacity="0.3"/>
<rect x="591.172" y="-28.666" width="24" height="792" stroke="#393953" stroke-opacity="0.3"/>
<rect x="615.172" y="-28.666" width="24" height="792" stroke="#393953" stroke-opacity="0.3"/>
<rect x="639.172" y="-28.666" width="24" height="792" stroke="#393953" stroke-opacity="0.3"/>
<rect x="663.172" y="-28.666" width="24" height="792" stroke="#393953" stroke-opacity="0.3"/>
<rect x="687.172" y="-28.666" width="24" height="792" stroke="#393953" stroke-opacity="0.3"/>
<rect x="711.172" y="-28.666" width="24" height="792" stroke="#393953" stroke-opacity="0.3"/>
<rect x="735.172" y="-28.666" width="24" height="792" stroke="#393953" stroke-opacity="0.3"/>
<rect x="759.172" y="-28.666" width="24" height="792" stroke="#393953" stroke-opacity="0.3"/>
<rect x="783.172" y="-28.666" width="24" height="792" stroke="#393953" stroke-opacity="0.3"/>
<rect x="807.172" y="-28.666" width="24" height="792" stroke="#393953" stroke-opacity="0.3"/>
<rect x="831.172" y="-28.666" width="24" height="792" stroke="#393953" stroke-opacity="0.3"/>
<rect x="855.172" y="-28.666" width="24" height="792" stroke="#393953" stroke-opacity="0.3"/>
<rect x="879.172" y="-28.666" width="24" height="792" stroke="#393953" stroke-opacity="0.3"/>
<rect x="903.172" y="-28.666" width="24" height="792" stroke="#393953" stroke-opacity="0.3"/>
<rect x="927.172" y="-28.666" width="24" height="792" stroke="#393953" stroke-opacity="0.3"/>
<rect x="951.172" y="-28.666" width="24" height="792" stroke="#393953" stroke-opacity="0.3"/>
<rect x="975.172" y="-28.666" width="24" height="792" stroke="#393953" stroke-opacity="0.3"/>
<rect x="999.172" y="-28.666" width="24" height="792" stroke="#393953" stroke-opacity="0.3"/>
<rect x="1023.17" y="-28.666" width="24" height="792" stroke="#393953" stroke-opacity="0.3"/>
<rect x="1047.17" y="-28.666" width="24" height="792" stroke="#393953" stroke-opacity="0.3"/>
<rect x="1071.17" y="-28.666" width="24" height="792" stroke="#393953" stroke-opacity="0.3"/>
<rect x="1095.17" y="-28.666" width="24" height="792" stroke="#393953" stroke-opacity="0.3"/>
<rect x="1119.17" y="-28.666" width="24" height="792" stroke="#393953" stroke-opacity="0.3"/>
<rect x="-56.8281" y="211.334" width="24" height="1440" transform="rotate(-90 -56.8281 211.334)" stroke="#393953" stroke-opacity="0.3"/>
<rect x="-56.8281" y="235.334" width="24" height="1440" transform="rotate(-90 -56.8281 235.334)" stroke="#393953" stroke-opacity="0.3"/>
<rect x="-56.8281" y="259.334" width="24" height="1440" transform="rotate(-90 -56.8281 259.334)" stroke="#393953" stroke-opacity="0.3"/>
<rect x="-56.8281" y="283.334" width="24" height="1440" transform="rotate(-90 -56.8281 283.334)" stroke="#393953" stroke-opacity="0.3"/>
<rect x="-56.8281" y="307.334" width="24" height="1440" transform="rotate(-90 -56.8281 307.334)" stroke="#393953" stroke-opacity="0.3"/>
<rect x="-56.8281" y="331.334" width="24" height="1440" transform="rotate(-90 -56.8281 331.334)" stroke="#393953" stroke-opacity="0.3"/>
<rect x="-56.8281" y="355.334" width="24" height="1440" transform="rotate(-90 -56.8281 355.334)" stroke="#393953" stroke-opacity="0.3"/>
<rect x="-56.8281" y="379.334" width="24" height="1440" transform="rotate(-90 -56.8281 379.334)" stroke="#393953" stroke-opacity="0.3"/>
<rect x="-56.8281" y="403.334" width="24" height="1440" transform="rotate(-90 -56.8281 403.334)" stroke="#393953" stroke-opacity="0.3"/>
<rect x="-56.8281" y="427.334" width="24" height="1440" transform="rotate(-90 -56.8281 427.334)" stroke="#393953" stroke-opacity="0.3"/>
<rect x="-56.8281" y="451.334" width="24" height="1440" transform="rotate(-90 -56.8281 451.334)" stroke="#393953" stroke-opacity="0.3"/>
<rect x="-56.8281" y="475.334" width="24" height="1440" transform="rotate(-90 -56.8281 475.334)" stroke="#393953" stroke-opacity="0.3"/>
<rect x="-56.8281" y="499.334" width="24" height="1440" transform="rotate(-90 -56.8281 499.334)" stroke="#393953" stroke-opacity="0.3"/>
<rect x="-56.8281" y="523.334" width="24" height="1440" transform="rotate(-90 -56.8281 523.334)" stroke="#393953" stroke-opacity="0.3"/>
</svg>
