<svg width="1440" height="792" viewBox="0 0 1440 792" fill="none" xmlns="http://www.w3.org/2000/svg">
<mask id="mask0_22105_3164" style="mask-type:alpha" maskUnits="userSpaceOnUse" x="0" y="0" width="1440" height="792">
<rect x="1440" y="792" width="1440" height="792" transform="rotate(-180 1440 792)" fill="url(#paint0_linear_22105_3164)"/>
</mask>
<g mask="url(#mask0_22105_3164)">
<rect x="1440" y="792" width="24" height="792" transform="rotate(-180 1440 792)" stroke="#393953" stroke-opacity="0.3"/>
<rect x="1416" y="792" width="24" height="792" transform="rotate(-180 1416 792)" stroke="#393953" stroke-opacity="0.3"/>
<rect x="1392" y="792" width="24" height="792" transform="rotate(-180 1392 792)" stroke="#393953" stroke-opacity="0.3"/>
<rect x="1368" y="792" width="24" height="792" transform="rotate(-180 1368 792)" stroke="#393953" stroke-opacity="0.3"/>
<rect x="1344" y="792" width="24" height="792" transform="rotate(-180 1344 792)" stroke="#393953" stroke-opacity="0.3"/>
<rect x="1320" y="792" width="24" height="792" transform="rotate(-180 1320 792)" stroke="#393953" stroke-opacity="0.3"/>
<rect x="1296" y="792" width="24" height="792" transform="rotate(-180 1296 792)" stroke="#393953" stroke-opacity="0.3"/>
<rect x="1272" y="792" width="24" height="792" transform="rotate(-180 1272 792)" stroke="#393953" stroke-opacity="0.3"/>
<rect x="1248" y="792" width="24" height="792" transform="rotate(-180 1248 792)" stroke="#393953" stroke-opacity="0.3"/>
<rect x="1224" y="792" width="24" height="792" transform="rotate(-180 1224 792)" stroke="#393953" stroke-opacity="0.3"/>
<rect x="1200" y="792" width="24" height="792" transform="rotate(-180 1200 792)" stroke="#393953" stroke-opacity="0.3"/>
<rect x="1176" y="792" width="24" height="792" transform="rotate(-180 1176 792)" stroke="#393953" stroke-opacity="0.3"/>
<rect x="1152" y="792" width="24" height="792" transform="rotate(-180 1152 792)" stroke="#393953" stroke-opacity="0.3"/>
<rect x="1128" y="792" width="24" height="792" transform="rotate(-180 1128 792)" stroke="#393953" stroke-opacity="0.3"/>
<rect x="1104" y="792" width="24" height="792" transform="rotate(-180 1104 792)" stroke="#393953" stroke-opacity="0.3"/>
<rect x="1080" y="792" width="24" height="792" transform="rotate(-180 1080 792)" stroke="#393953" stroke-opacity="0.3"/>
<rect x="1056" y="792" width="24" height="792" transform="rotate(-180 1056 792)" stroke="#393953" stroke-opacity="0.3"/>
<rect x="1032" y="792" width="24" height="792" transform="rotate(-180 1032 792)" stroke="#393953" stroke-opacity="0.3"/>
<rect x="1008" y="792" width="24" height="792" transform="rotate(-180 1008 792)" stroke="#393953" stroke-opacity="0.3"/>
<rect x="984" y="792" width="24" height="792" transform="rotate(-180 984 792)" stroke="#393953" stroke-opacity="0.3"/>
<rect x="960" y="792" width="24" height="792" transform="rotate(-180 960 792)" stroke="#393953" stroke-opacity="0.3"/>
<rect x="936" y="792" width="24" height="792" transform="rotate(-180 936 792)" stroke="#393953" stroke-opacity="0.3"/>
<rect x="912" y="792" width="24" height="792" transform="rotate(-180 912 792)" stroke="#393953" stroke-opacity="0.3"/>
<rect x="888" y="792" width="24" height="792" transform="rotate(-180 888 792)" stroke="#393953" stroke-opacity="0.3"/>
<rect x="864" y="792" width="24" height="792" transform="rotate(-180 864 792)" stroke="#393953" stroke-opacity="0.3"/>
<rect x="840" y="792" width="24" height="792" transform="rotate(-180 840 792)" stroke="#393953" stroke-opacity="0.3"/>
<rect x="816" y="792" width="24" height="792" transform="rotate(-180 816 792)" stroke="#393953" stroke-opacity="0.3"/>
<rect x="792" y="792" width="24" height="792" transform="rotate(-180 792 792)" stroke="#393953" stroke-opacity="0.3"/>
<rect x="768" y="792" width="24" height="792" transform="rotate(-180 768 792)" stroke="#393953" stroke-opacity="0.3"/>
<rect x="744" y="792" width="24" height="792" transform="rotate(-180 744 792)" stroke="#393953" stroke-opacity="0.3"/>
<rect x="720" y="792" width="24" height="792" transform="rotate(-180 720 792)" stroke="#393953" stroke-opacity="0.3"/>
<rect x="696" y="792" width="24" height="792" transform="rotate(-180 696 792)" stroke="#393953" stroke-opacity="0.3"/>
<rect x="672" y="792" width="24" height="792" transform="rotate(-180 672 792)" stroke="#393953" stroke-opacity="0.3"/>
<rect x="648" y="792" width="24" height="792" transform="rotate(-180 648 792)" stroke="#393953" stroke-opacity="0.3"/>
<rect x="624" y="792" width="24" height="792" transform="rotate(-180 624 792)" stroke="#393953" stroke-opacity="0.3"/>
<rect x="600" y="792" width="24" height="792" transform="rotate(-180 600 792)" stroke="#393953" stroke-opacity="0.3"/>
<rect x="576" y="792" width="24" height="792" transform="rotate(-180 576 792)" stroke="#393953" stroke-opacity="0.3"/>
<rect x="552" y="792" width="24" height="792" transform="rotate(-180 552 792)" stroke="#393953" stroke-opacity="0.3"/>
<rect x="528" y="792" width="24" height="792" transform="rotate(-180 528 792)" stroke="#393953" stroke-opacity="0.3"/>
<rect x="504" y="792" width="24" height="792" transform="rotate(-180 504 792)" stroke="#393953" stroke-opacity="0.3"/>
<rect x="480" y="792" width="24" height="792" transform="rotate(-180 480 792)" stroke="#393953" stroke-opacity="0.3"/>
<rect x="456" y="792" width="24" height="792" transform="rotate(-180 456 792)" stroke="#393953" stroke-opacity="0.3"/>
<rect x="432" y="792" width="24" height="792" transform="rotate(-180 432 792)" stroke="#393953" stroke-opacity="0.3"/>
<rect x="408" y="792" width="24" height="792" transform="rotate(-180 408 792)" stroke="#393953" stroke-opacity="0.3"/>
<rect x="384" y="792" width="24" height="792" transform="rotate(-180 384 792)" stroke="#393953" stroke-opacity="0.3"/>
<rect x="360" y="792" width="24" height="792" transform="rotate(-180 360 792)" stroke="#393953" stroke-opacity="0.3"/>
<rect x="336" y="792" width="24" height="792" transform="rotate(-180 336 792)" stroke="#393953" stroke-opacity="0.3"/>
<rect x="312" y="792" width="24" height="792" transform="rotate(-180 312 792)" stroke="#393953" stroke-opacity="0.3"/>
<rect x="288" y="792" width="24" height="792" transform="rotate(-180 288 792)" stroke="#393953" stroke-opacity="0.3"/>
<rect x="264" y="792" width="24" height="792" transform="rotate(-180 264 792)" stroke="#393953" stroke-opacity="0.3"/>
<rect x="240" y="792" width="24" height="792" transform="rotate(-180 240 792)" stroke="#393953" stroke-opacity="0.3"/>
<rect x="216" y="792" width="24" height="792" transform="rotate(-180 216 792)" stroke="#393953" stroke-opacity="0.3"/>
<rect x="192" y="792" width="24" height="792" transform="rotate(-180 192 792)" stroke="#393953" stroke-opacity="0.3"/>
<rect x="168" y="792" width="24" height="792" transform="rotate(-180 168 792)" stroke="#393953" stroke-opacity="0.3"/>
<rect x="144" y="792" width="24" height="792" transform="rotate(-180 144 792)" stroke="#393953" stroke-opacity="0.3"/>
<rect x="120" y="792" width="24" height="792" transform="rotate(-180 120 792)" stroke="#393953" stroke-opacity="0.3"/>
<rect x="96" y="792" width="24" height="792" transform="rotate(-180 96 792)" stroke="#393953" stroke-opacity="0.3"/>
<rect x="72" y="792" width="24" height="792" transform="rotate(-180 72 792)" stroke="#393953" stroke-opacity="0.3"/>
<rect x="48" y="792" width="24" height="792" transform="rotate(-180 48 792)" stroke="#393953" stroke-opacity="0.3"/>
<rect x="24" y="792" width="24" height="792" transform="rotate(-180 24 792)" stroke="#393953" stroke-opacity="0.3"/>
<rect x="1440" y="768" width="24" height="1440" transform="rotate(90 1440 768)" stroke="#393953" stroke-opacity="0.3"/>
<rect x="1440" y="744" width="24" height="1440" transform="rotate(90 1440 744)" stroke="#393953" stroke-opacity="0.3"/>
<rect x="1440" y="720" width="24" height="1440" transform="rotate(90 1440 720)" stroke="#393953" stroke-opacity="0.3"/>
<rect x="1440" y="696" width="24" height="1440" transform="rotate(90 1440 696)" stroke="#393953" stroke-opacity="0.3"/>
<rect x="1440" y="672" width="24" height="1440" transform="rotate(90 1440 672)" stroke="#393953" stroke-opacity="0.3"/>
<rect x="1440" y="648" width="24" height="1440" transform="rotate(90 1440 648)" stroke="#393953" stroke-opacity="0.3"/>
<rect x="1440" y="624" width="24" height="1440" transform="rotate(90 1440 624)" stroke="#393953" stroke-opacity="0.3"/>
<rect x="1440" y="600" width="24" height="1440" transform="rotate(90 1440 600)" stroke="#393953" stroke-opacity="0.3"/>
<rect x="1440" y="576" width="24" height="1440" transform="rotate(90 1440 576)" stroke="#393953" stroke-opacity="0.3"/>
<rect x="1440" y="552" width="24" height="1440" transform="rotate(90 1440 552)" stroke="#393953" stroke-opacity="0.3"/>
<rect x="1440" y="528" width="24" height="1440" transform="rotate(90 1440 528)" stroke="#393953" stroke-opacity="0.3"/>
<rect x="1440" y="504" width="24" height="1440" transform="rotate(90 1440 504)" stroke="#393953" stroke-opacity="0.3"/>
<rect x="1440" y="480" width="24" height="1440" transform="rotate(90 1440 480)" stroke="#393953" stroke-opacity="0.3"/>
<rect x="1440" y="456" width="24" height="1440" transform="rotate(90 1440 456)" stroke="#393953" stroke-opacity="0.3"/>
<rect x="1440" y="432" width="24" height="1440" transform="rotate(90 1440 432)" stroke="#393953" stroke-opacity="0.3"/>
<rect x="1440" y="408" width="24" height="1440" transform="rotate(90 1440 408)" stroke="#393953" stroke-opacity="0.3"/>
<rect x="1440" y="384" width="24" height="1440" transform="rotate(90 1440 384)" stroke="#393953" stroke-opacity="0.3"/>
<rect x="1440" y="360" width="24" height="1440" transform="rotate(90 1440 360)" stroke="#393953" stroke-opacity="0.3"/>
<rect x="1440" y="336" width="24" height="1440" transform="rotate(90 1440 336)" stroke="#393953" stroke-opacity="0.3"/>
<rect x="1440" y="312" width="24" height="1440" transform="rotate(90 1440 312)" stroke="#393953" stroke-opacity="0.3"/>
<rect x="1440" y="288" width="24" height="1440" transform="rotate(90 1440 288)" stroke="#393953" stroke-opacity="0.3"/>
<rect x="1440" y="264" width="24" height="1440" transform="rotate(90 1440 264)" stroke="#393953" stroke-opacity="0.3"/>
<rect x="1440" y="240" width="24" height="1440" transform="rotate(90 1440 240)" stroke="#393953" stroke-opacity="0.3"/>
<rect x="1440" y="216" width="24" height="1440" transform="rotate(90 1440 216)" stroke="#393953" stroke-opacity="0.3"/>
<rect x="1440" y="192" width="24" height="1440" transform="rotate(90 1440 192)" stroke="#393953" stroke-opacity="0.3"/>
<rect x="1440" y="168" width="24" height="1440" transform="rotate(90 1440 168)" stroke="#393953" stroke-opacity="0.3"/>
<rect x="1440" y="144" width="24" height="1440" transform="rotate(90 1440 144)" stroke="#393953" stroke-opacity="0.3"/>
<rect x="1440" y="120" width="24" height="1440" transform="rotate(90 1440 120)" stroke="#393953" stroke-opacity="0.3"/>
<rect x="1440" y="96" width="24" height="1440" transform="rotate(90 1440 96)" stroke="#393953" stroke-opacity="0.3"/>
<rect x="1440" y="72" width="24" height="1440" transform="rotate(90 1440 72)" stroke="#393953" stroke-opacity="0.3"/>
<rect x="1440" y="48" width="24" height="1440" transform="rotate(90 1440 48)" stroke="#393953" stroke-opacity="0.3"/>
<rect x="1440" y="24" width="24" height="1440" transform="rotate(90 1440 24)" stroke="#393953" stroke-opacity="0.3"/>
<rect x="1440" width="24" height="1440" transform="rotate(90 1440 0)" stroke="#393953" stroke-opacity="0.3"/>
</g>
<defs>
<linearGradient id="paint0_linear_22105_3164" x1="2160" y1="792" x2="2160" y2="1584" gradientUnits="userSpaceOnUse">
<stop stop-color="white"/>
<stop offset="1" stop-color="white" stop-opacity="0"/>
</linearGradient>
</defs>
</svg>
