<svg width="59" height="62" viewBox="0 0 59 62" fill="none" xmlns="http://www.w3.org/2000/svg">
<path fill-rule="evenodd" clip-rule="evenodd" d="M28.3746 5.48413C28.3746 5.23967 28.1752 5.0415 27.9293 5.0415C27.6833 5.0415 27.484 5.23967 27.484 5.48413V5.51214C27.484 5.75659 27.6833 5.95476 27.9293 5.95476C28.1752 5.95476 28.3746 5.75659 28.3746 5.51214V5.48413ZM28.3746 9.99453C28.3746 9.75008 28.1752 9.55191 27.9293 9.55191C27.6833 9.55191 27.484 9.75008 27.484 9.99453V10.0506C27.484 10.295 27.6833 10.4932 27.9293 10.4932C28.1752 10.4932 28.3746 10.295 28.3746 10.0506V9.99453ZM28.3746 14.533C28.3746 14.2885 28.1752 14.0903 27.9293 14.0903C27.6833 14.0903 27.484 14.2885 27.484 14.533V14.589C27.484 14.8334 27.6833 15.0316 27.9293 15.0316C28.1752 15.0316 28.3746 14.8334 28.3746 14.589V14.533ZM28.3746 19.0714C28.3746 18.8269 28.1752 18.6288 27.9293 18.6288C27.6833 18.6288 27.484 18.8269 27.484 19.0714V19.0994C27.484 19.3438 27.6833 19.542 27.9293 19.542C28.1752 19.542 28.3746 19.3438 28.3746 19.0994V19.0714ZM28.3745 41.4628C28.3745 41.2184 28.1752 41.0202 27.9292 41.0202C27.6833 41.0202 27.484 41.2184 27.484 41.4628V41.4927C27.484 41.7372 27.6833 41.9354 27.9292 41.9354C28.1752 41.9354 28.3745 41.7372 28.3745 41.4927V41.4628ZM28.3745 46.2761C28.3745 46.0317 28.1752 45.8335 27.9292 45.8335C27.6833 45.8335 27.484 46.0317 27.484 46.2761V46.3359C27.484 46.5804 27.6833 46.7786 27.9292 46.7786C28.1752 46.7786 28.3745 46.5804 28.3745 46.3359V46.2761ZM28.3745 51.1193C28.3745 50.8749 28.1752 50.6767 27.9292 50.6767C27.6833 50.6767 27.484 50.8749 27.484 51.1193V51.1791C27.484 51.4236 27.6833 51.6218 27.9292 51.6218C28.1752 51.6218 28.3745 51.4236 28.3745 51.1791V51.1193ZM28.3745 55.9625C28.3745 55.7181 28.1752 55.5199 27.9292 55.5199C27.6833 55.5199 27.484 55.7181 27.484 55.9625V56.0223C27.484 56.2668 27.6833 56.465 27.9292 56.465C28.1752 56.465 28.3745 56.2668 28.3745 56.0223V55.9625ZM28.3745 60.8057C28.3745 60.5613 28.1752 60.3631 27.9292 60.3631C27.6833 60.3631 27.484 60.5613 27.484 60.8057V60.8356C27.484 61.0801 27.6833 61.2783 27.9292 61.2783C28.1752 61.2783 28.3745 61.0801 28.3745 60.8356V60.8057ZM58.4808 30.9096C58.4808 31.1541 58.2814 31.3522 58.0355 31.3522H58.0085C57.7626 31.3522 57.5633 31.1541 57.5633 30.9096C57.5633 30.6652 57.7626 30.467 58.0085 30.467H58.0355C58.2814 30.467 58.4808 30.6652 58.4808 30.9096ZM54.1432 30.9096C54.1432 31.1541 53.9438 31.3522 53.6979 31.3522H53.644C53.3981 31.3522 53.1987 31.1541 53.1987 30.9096C53.1987 30.6652 53.3981 30.467 53.644 30.467H53.6979C53.9438 30.467 54.1432 30.6652 54.1432 30.9096ZM49.7787 30.9096C49.7787 31.1541 49.5793 31.3522 49.3334 31.3522H49.2795C49.0336 31.3522 48.8342 31.1541 48.8342 30.9096C48.8342 30.6652 49.0336 30.467 49.2795 30.467H49.3334C49.5793 30.467 49.7787 30.6652 49.7787 30.9096ZM45.4142 30.9096C45.4142 31.1541 45.2148 31.3522 44.9689 31.3522H44.915C44.6691 31.3522 44.4697 31.1541 44.4697 30.9096C44.4697 30.6652 44.6691 30.467 44.915 30.467H44.9689C45.2148 30.467 45.4142 30.6652 45.4142 30.9096ZM41.0496 30.9096C41.0496 31.1541 40.8503 31.3522 40.6043 31.3522H40.5505C40.3045 31.3522 40.1052 31.1541 40.1052 30.9096C40.1052 30.6652 40.3045 30.467 40.5505 30.467H40.6043C40.8503 30.467 41.0496 30.6652 41.0496 30.9096ZM36.6851 30.9096C36.6851 31.1541 36.4857 31.3522 36.2398 31.3522H36.2129C35.967 31.3522 35.7676 31.1541 35.7676 30.9096C35.7676 30.6652 35.967 30.467 36.2129 30.467H36.2398C36.4857 30.467 36.6851 30.6652 36.6851 30.9096ZM19.8361 31.3522C20.082 31.3522 20.2814 31.1541 20.2814 30.9096C20.2814 30.6652 20.082 30.467 19.8361 30.467H19.8089C19.563 30.467 19.3636 30.6652 19.3636 30.9096C19.3636 31.1541 19.563 31.3522 19.8089 31.3522H19.8361ZM15.4606 31.3522C15.7065 31.3522 15.9059 31.1541 15.9059 30.9096C15.9059 30.6652 15.7065 30.467 15.4606 30.467H15.4062C15.1603 30.467 14.9609 30.6652 14.9609 30.9096C14.9609 31.1541 15.1603 31.3522 15.4062 31.3522H15.4606ZM11.0579 31.3522C11.3038 31.3522 11.5032 31.1541 11.5032 30.9096C11.5032 30.6652 11.3038 30.467 11.0579 30.467H11.0036C10.7576 30.467 10.5583 30.6652 10.5583 30.9096C10.5583 31.1541 10.7576 31.3522 11.0036 31.3522H11.0579ZM6.65524 31.3522C6.90117 31.3522 7.10052 31.1541 7.10052 30.9096C7.10052 30.6652 6.90117 30.467 6.65524 30.467H6.60088C6.35496 30.467 6.15559 30.6652 6.15559 30.9096C6.15559 31.1541 6.35496 31.3522 6.60088 31.3522H6.65524ZM2.25257 31.3522C2.4985 31.3522 2.69786 31.1541 2.69786 30.9096C2.69786 30.6652 2.4985 30.467 2.25257 30.467H2.19822C1.95229 30.467 1.75293 30.6652 1.75293 30.9096C1.75293 31.1541 1.95229 31.3522 2.19822 31.3522H2.25257Z" fill="white" fill-opacity="0.3"/>
<path fill-rule="evenodd" clip-rule="evenodd" d="M27.8992 0.540894H27.9587C28.2046 0.541127 28.4038 0.739484 28.4036 0.983937C28.4033 1.22839 28.2038 1.42637 27.9578 1.42614H27.9C27.6541 1.42637 27.4545 1.22839 27.4543 0.983937C27.4541 0.739484 27.6532 0.541127 27.8992 0.540894ZM23.6904 1.27469C23.7284 1.51621 23.5622 1.74258 23.3192 1.7803L23.2622 1.7892C23.0193 1.82738 22.7912 1.66261 22.7528 1.42115C22.7144 1.1797 22.8802 0.953009 23.1231 0.914822L23.1818 0.905654C23.4247 0.867939 23.6525 1.03316 23.6904 1.27469ZM32.1674 1.27469C32.2054 1.03316 32.4331 0.867939 32.6761 0.905655L32.7348 0.914823C32.9777 0.953009 33.1435 1.1797 33.105 1.42115C33.0666 1.66261 32.8386 1.82738 32.5957 1.7892L32.5387 1.7803C32.2957 1.74258 32.1295 1.51621 32.1674 1.27469ZM36.7765 2.2943C36.8522 2.06173 37.1033 1.93421 37.3373 2.00948L37.3937 2.02768C37.6275 2.10341 37.7553 2.35322 37.6791 2.58565C37.6029 2.81807 37.3516 2.94511 37.1178 2.86938L37.063 2.85171C36.8291 2.77644 36.7008 2.52688 36.7765 2.2943ZM19.0814 2.29431C19.1571 2.52688 19.0288 2.77644 18.7948 2.85171L18.7401 2.86938C18.5062 2.94511 18.2549 2.81807 18.1788 2.58565C18.1026 2.35322 18.2304 2.10341 18.4642 2.02768L18.5206 2.00948C18.7546 1.93421 19.0056 2.06173 19.0814 2.29431ZM41.1659 4.02289C41.2775 3.80506 41.5457 3.71841 41.7648 3.82936L41.8176 3.85612C42.0365 3.96749 42.1231 4.23418 42.0111 4.45179C41.899 4.6694 41.6307 4.75553 41.4118 4.64416L41.3606 4.61818C41.1415 4.50724 41.0543 4.24071 41.1659 4.02289ZM14.6919 4.02289C14.8035 4.24071 14.7164 4.50724 14.4972 4.61818L14.446 4.64416C14.2271 4.75553 13.9588 4.6694 13.8468 4.45179C13.7347 4.23418 13.8214 3.96749 14.0403 3.85612L14.093 3.82936C14.3122 3.71841 14.5803 3.80506 14.6919 4.02289ZM10.6302 6.41515C10.7747 6.61294 10.7306 6.88973 10.5316 7.03339L10.4851 7.067C10.2864 7.21103 10.0079 7.16768 9.86299 6.97017C9.71808 6.77266 9.76169 6.49578 9.96039 6.35174L10.0082 6.31713C10.2072 6.17347 10.4857 6.21736 10.6302 6.41515ZM45.2276 6.41515C45.3722 6.21736 45.6506 6.17347 45.8496 6.31713L45.8975 6.35174C46.0962 6.49578 46.1398 6.77266 45.9949 6.97017C45.85 7.16768 45.5714 7.21103 45.3727 7.067L45.3263 7.03339C45.1273 6.88973 45.0831 6.61294 45.2276 6.41515ZM6.99375 9.40829C7.16748 9.58131 7.16721 9.86156 6.99314 10.0343L6.9525 10.0747C6.77877 10.2477 6.49683 10.2479 6.32276 10.0753C6.1487 9.90257 6.14843 9.62232 6.32216 9.4493L6.36402 9.40769C6.53808 9.235 6.82002 9.23527 6.99375 9.40829ZM48.8641 9.40829C49.0378 9.23527 49.3198 9.235 49.4938 9.40769L49.5357 9.4493C49.7094 9.62232 49.7092 9.90257 49.5351 10.0753C49.361 10.2479 49.0791 10.2477 48.9054 10.0747L48.8647 10.0343C48.6907 9.86156 48.6904 9.58131 48.8641 9.40829ZM3.86995 12.9273C4.06866 13.0713 4.11227 13.3482 3.96736 13.5457L3.93355 13.5919C3.78903 13.7897 3.51057 13.8336 3.31159 13.6899C3.11261 13.5463 3.06846 13.2695 3.21298 13.0717L3.2478 13.0241C3.39271 12.8266 3.67125 12.7833 3.86995 12.9273ZM51.9879 12.9273C52.1866 12.7833 52.4652 12.8266 52.6101 13.0241L52.6449 13.0717C52.7894 13.2695 52.7453 13.5463 52.5463 13.6899C52.3473 13.8336 52.0688 13.7897 51.9243 13.5919L51.8905 13.5457C51.7456 13.3482 51.7892 13.0713 51.9879 12.9273ZM54.5215 16.8872C54.7404 16.7759 55.0087 16.862 55.1207 17.0796L55.1476 17.132C55.2593 17.3499 55.1721 17.6164 54.9529 17.7273C54.7338 17.8383 54.4657 17.7516 54.3541 17.5338L54.3279 17.4829C54.2159 17.2653 54.3025 16.9986 54.5215 16.8872ZM56.3988 21.1933C56.6327 21.1175 56.884 21.2446 56.9602 21.477L56.9785 21.5331C57.0542 21.7656 56.9259 22.0152 56.6919 22.0905C56.458 22.1657 56.2069 22.0382 56.1312 21.8056L56.1134 21.7512C56.0372 21.5188 56.165 21.269 56.3988 21.1933ZM57.5704 25.7399C57.8133 25.7018 58.0413 25.8665 58.0797 26.108L58.089 26.1663C58.1269 26.4078 57.9607 26.6342 57.7177 26.6719C57.4747 26.7096 57.247 26.5444 57.209 26.3029L57.2001 26.2463C57.1617 26.0048 57.3274 25.7781 57.5704 25.7399ZM58.0102 30.4133C58.2561 30.413 58.4557 30.611 58.4559 30.8555V30.9146C58.4557 31.1591 58.2561 31.3571 58.0102 31.3568C57.7643 31.3566 57.5651 31.1582 57.5653 30.9138V30.8563C57.5651 30.6119 57.7643 30.4135 58.0102 30.4133ZM57.7177 35.0982C57.9607 35.1359 58.1269 35.3623 58.089 35.6038L58.0797 35.6621C58.0413 35.9036 57.8133 36.0684 57.5704 36.0302C57.3274 35.992 57.1617 35.7653 57.2001 35.5238L57.209 35.4672C57.247 35.2257 57.4747 35.0605 57.7177 35.0982ZM56.6919 39.6796C56.9259 39.7549 57.0542 40.0045 56.9785 40.237L56.9602 40.2931C56.884 40.5255 56.6327 40.6526 56.3988 40.5768C56.165 40.5011 56.0372 40.2513 56.1134 40.0189L56.1312 39.9645C56.2069 39.7319 56.458 39.6044 56.6919 39.6796ZM0.904912 44.0428C1.12405 43.9318 1.39218 44.0185 1.50379 44.2363L1.52993 44.2872C1.64197 44.5048 1.55532 44.7715 1.3364 44.8829C1.11748 44.9942 0.849181 44.9081 0.737142 44.6905L0.710217 44.6381C0.598604 44.4202 0.685772 44.1537 0.904912 44.0428ZM54.9529 44.0428C55.1721 44.1537 55.2593 44.4202 55.1476 44.6381L55.1207 44.6905C55.0087 44.9081 54.7404 44.9942 54.5215 44.8829C54.3025 44.7715 54.2159 44.5048 54.3279 44.2872L54.3541 44.2363C54.4657 44.0185 54.7338 43.9318 54.9529 44.0428ZM3.31159 48.0802C3.51057 47.9365 3.78903 47.9804 3.93355 48.1782L3.96736 48.2244C4.11227 48.4219 4.06866 48.6988 3.86995 48.8428C3.67125 48.9868 3.39271 48.9435 3.2478 48.746L3.21298 48.6984C3.06845 48.5006 3.1126 48.2238 3.31159 48.0802ZM52.5463 48.0802C52.7453 48.2238 52.7894 48.5006 52.6449 48.6984L52.6101 48.746C52.4652 48.9435 52.1866 48.9868 51.9879 48.8428C51.7892 48.6988 51.7456 48.4219 51.8905 48.2244L51.9243 48.1782C52.0688 47.9804 52.3473 47.9365 52.5463 48.0802ZM6.32276 51.6948C6.49683 51.5222 6.77877 51.5224 6.9525 51.6954L6.99314 51.7359C7.16721 51.9085 7.16748 52.1888 6.99375 52.3618C6.82002 52.5348 6.53808 52.5351 6.36402 52.3624L6.32216 52.3208C6.14843 52.1478 6.1487 51.8675 6.32276 51.6948ZM49.5351 51.6948C49.7092 51.8675 49.7094 52.1478 49.5357 52.3208L49.4938 52.3624C49.3198 52.5351 49.0378 52.5348 48.8641 52.3618C48.6904 52.1888 48.6907 51.9085 48.8647 51.7359L48.9054 51.6954C49.0791 51.5224 49.361 51.5222 49.5351 51.6948ZM9.86299 54.7999C10.0079 54.6024 10.2864 54.5591 10.4851 54.7031L10.5316 54.7367C10.7306 54.8804 10.7747 55.1572 10.6302 55.355C10.4857 55.5527 10.2072 55.5966 10.0082 55.453L9.96039 55.4184C9.76169 55.2743 9.71808 54.9974 9.86299 54.7999ZM45.9949 54.7999C46.1398 54.9974 46.0962 55.2743 45.8975 55.4184L45.8496 55.453C45.6506 55.5966 45.3722 55.5527 45.2276 55.355C45.0831 55.1572 45.1273 54.8804 45.3263 54.7367L45.3727 54.7031C45.5714 54.5591 45.85 54.6024 45.9949 54.7999ZM13.8468 57.3183C13.9588 57.1007 14.2271 57.0146 14.446 57.1259L14.4972 57.1519C14.7164 57.2629 14.8035 57.5294 14.6919 57.7472C14.5803 57.965 14.3122 58.0517 14.093 57.9407L14.0403 57.914C13.8214 57.8026 13.7347 57.5359 13.8468 57.3183ZM42.0111 57.3183C42.1231 57.5359 42.0365 57.8026 41.8176 57.914L41.7648 57.9407C41.5457 58.0517 41.2775 57.965 41.1659 57.7472C41.0543 57.5294 41.1415 57.2629 41.3606 57.1519L41.4118 57.1259C41.6307 57.0146 41.899 57.1007 42.0111 57.3183ZM18.1788 59.1845C18.2549 58.952 18.5062 58.825 18.7401 58.9007L18.7948 58.9184C19.0288 58.9937 19.1571 59.2432 19.0814 59.4758C19.0056 59.7084 18.7546 59.8359 18.5206 59.7606L18.4642 59.7424C18.2304 59.6667 18.1026 59.4169 18.1788 59.1845ZM37.6791 59.1845C37.7553 59.4169 37.6275 59.6667 37.3937 59.7424L37.3373 59.7606C37.1033 59.8359 36.8522 59.7084 36.7765 59.4758C36.7008 59.2432 36.8291 58.9937 37.063 58.9184L37.1178 58.9007C37.3516 58.825 37.6029 58.952 37.6791 59.1845ZM22.7528 60.3489C22.7912 60.1075 23.0193 59.9427 23.2622 59.9809L23.3192 59.9898C23.5622 60.0275 23.7284 60.2539 23.6904 60.4954C23.6525 60.7369 23.4247 60.9022 23.1818 60.8644L23.1231 60.8553C22.8802 60.8171 22.7144 60.5904 22.7528 60.3489ZM33.105 60.3489C33.1435 60.5904 32.9777 60.8171 32.7348 60.8553L32.6761 60.8644C32.4331 60.9022 32.2054 60.7369 32.1674 60.4954C32.1295 60.2539 32.2957 60.0275 32.5387 59.9898L32.5957 59.9809C32.8386 59.9427 33.0666 60.1075 33.105 60.3489ZM27.4543 60.7862C27.4545 60.5417 27.6541 60.3437 27.9 60.344H27.9578C28.2038 60.3437 28.4033 60.5417 28.4036 60.7862C28.4038 61.0306 28.2046 61.229 27.9587 61.2292H27.8992C27.6532 61.229 27.4541 61.0306 27.4543 60.7862Z" fill="white"/>
<path d="M28.9185 0.983559C28.9185 1.52679 28.4754 1.96716 27.9289 1.96716C27.3824 1.96716 26.9394 1.52679 26.9394 0.983559C26.9394 0.44033 27.3824 -4.45985e-05 27.9289 -4.45511e-05C28.4754 -4.45036e-05 28.9185 0.44033 28.9185 0.983559Z" fill="white"/>
<path d="M28.9185 60.7866C28.9185 61.3298 28.4754 61.7702 27.9289 61.7702C27.3824 61.7702 26.9394 61.3298 26.9394 60.7866C26.9394 60.2434 27.3824 59.803 27.9289 59.803C28.4754 59.803 28.9185 60.2434 28.9185 60.7866Z" fill="white"/>
<path d="M58.0105 31.8687C57.464 31.8687 57.021 31.4283 57.021 30.8851C57.021 30.3419 57.464 29.9015 58.0105 29.9015C58.557 29.9015 59 30.3419 59 30.8851C59 31.4283 58.557 31.8687 58.0105 31.8687Z" fill="white"/>
</svg>
