<svg width="68" height="68" viewBox="0 0 68 68" fill="none" xmlns="http://www.w3.org/2000/svg">
<g filter="url(#filter0_d_22125_3097)">
<path fill-rule="evenodd" clip-rule="evenodd" d="M42.2374 12.0527H50.1359L24.7058 47.669H16.9385L42.2374 12.0527ZM32.9586 22.5476L25.515 12.0527H17.5858L29.075 28.2722L32.9586 22.5476ZM31.0114 22.5679L29.0466 25.4641L20.6799 13.6527H24.6882L31.0114 22.5679ZM20.0376 46.069H23.8822L47.0275 13.6527H43.0635L20.0376 46.069Z" fill="white"/>
<path fill-rule="evenodd" clip-rule="evenodd" d="M43.973 46.157H47.8142L38.8015 33.3589L36.807 36.2081L43.973 46.157ZM34.8447 36.2213L43.1536 47.757H50.8979L38.7975 30.5745L34.8447 36.2213Z" fill="url(#paint0_linear_22125_3097)"/>
<path fill-rule="evenodd" clip-rule="evenodd" d="M34.3471 5.30992C34.3471 5.07323 34.1552 4.88135 33.9185 4.88135C33.6818 4.88135 33.4899 5.07323 33.4899 5.30992V5.33704C33.4899 5.57374 33.6818 5.76562 33.9185 5.76562C34.1552 5.76562 34.3471 5.57374 34.3471 5.33704V5.30992ZM34.3471 9.67715C34.3471 9.44046 34.1552 9.24858 33.9185 9.24858C33.6818 9.24858 33.4899 9.44046 33.4899 9.67715V9.7314C33.4899 9.9681 33.6818 10.16 33.9185 10.16C34.1552 10.16 34.3471 9.9681 34.3471 9.7314V9.67715ZM34.3471 14.0715C34.3471 13.8348 34.1552 13.6429 33.9185 13.6429C33.6818 13.6429 33.4899 13.8348 33.4899 14.0715V14.1258C33.4899 14.3625 33.6818 14.5543 33.9185 14.5543C34.1552 14.5543 34.3471 14.3625 34.3471 14.1258V14.0715ZM34.3471 18.4659C34.3471 18.2292 34.1552 18.0373 33.9185 18.0373C33.6818 18.0373 33.4899 18.2292 33.4899 18.4659V18.493C33.4899 18.7297 33.6818 18.9216 33.9185 18.9216C34.1552 18.9216 34.3471 18.7297 34.3471 18.493V18.4659ZM34.3471 40.1464C34.3471 39.9097 34.1552 39.7178 33.9185 39.7178C33.6818 39.7178 33.4899 39.9097 33.4899 40.1464V40.1754C33.4899 40.4121 33.6818 40.6039 33.9185 40.6039C34.1552 40.6039 34.3471 40.4121 34.3471 40.1754V40.1464ZM34.3471 44.8069C34.3471 44.5702 34.1552 44.3784 33.9185 44.3784C33.6818 44.3784 33.4899 44.5702 33.4899 44.8069V44.8648C33.4899 45.1015 33.6818 45.2934 33.9185 45.2934C34.1552 45.2934 34.3471 45.1015 34.3471 44.8648V44.8069ZM34.3471 49.4964C34.3471 49.2597 34.1552 49.0678 33.9185 49.0678C33.6818 49.0678 33.4899 49.2597 33.4899 49.4964V49.5543C33.4899 49.791 33.6818 49.9829 33.9185 49.9829C34.1552 49.9829 34.3471 49.791 34.3471 49.5543V49.4964ZM34.3471 54.1858C34.3471 53.9492 34.1552 53.7573 33.9185 53.7573C33.6818 53.7573 33.4899 53.9492 33.4899 54.1858V54.2437C33.4899 54.4804 33.6818 54.6723 33.9185 54.6723C34.1552 54.6723 34.3471 54.4804 34.3471 54.2437V54.1858ZM34.3471 58.8753C34.3471 58.6386 34.1552 58.4467 33.9185 58.4467C33.6818 58.4467 33.4899 58.6386 33.4899 58.8753V58.9043C33.4899 59.141 33.6818 59.3328 33.9185 59.3328C34.1552 59.3328 34.3471 59.141 34.3471 58.9043V58.8753ZM63.3231 29.9282C63.3231 30.1649 63.1312 30.3568 62.8945 30.3568H62.8686C62.6319 30.3568 62.44 30.1649 62.44 29.9282C62.44 29.6915 62.6319 29.4997 62.8686 29.4997H62.8945C63.1312 29.4997 63.3231 29.6915 63.3231 29.9282ZM59.1483 29.9282C59.1483 30.1649 58.9565 30.3568 58.7198 30.3568H58.6679C58.4312 30.3568 58.2393 30.1649 58.2393 29.9282C58.2393 29.6915 58.4312 29.4997 58.6679 29.4997H58.7198C58.9565 29.4997 59.1483 29.6915 59.1483 29.9282ZM54.9477 29.9282C54.9477 30.1649 54.7558 30.3568 54.5191 30.3568H54.4672C54.2305 30.3568 54.0387 30.1649 54.0387 29.9282C54.0387 29.6915 54.2305 29.4997 54.4672 29.4997H54.5191C54.7558 29.4997 54.9477 29.6915 54.9477 29.9282ZM50.747 29.9282C50.747 30.1649 50.5551 30.3568 50.3184 30.3568H50.2666C50.0299 30.3568 49.838 30.1649 49.838 29.9282C49.838 29.6915 50.0299 29.4997 50.2666 29.4997H50.3184C50.5551 29.4997 50.747 29.6915 50.747 29.9282ZM46.5463 29.9282C46.5463 30.1649 46.3545 30.3568 46.1178 30.3568H46.0659C45.8292 30.3568 45.6373 30.1649 45.6373 29.9282C45.6373 29.6915 45.8292 29.4997 46.0659 29.4997H46.1178C46.3545 29.4997 46.5463 29.6915 46.5463 29.9282ZM42.3457 29.9282C42.3457 30.1649 42.1538 30.3568 41.9171 30.3568H41.8912C41.6545 30.3568 41.4626 30.1649 41.4626 29.9282C41.4626 29.6915 41.6545 29.4997 41.8912 29.4997H41.9171C42.1538 29.4997 42.3457 29.6915 42.3457 29.9282ZM26.1292 30.3568C26.3659 30.3568 26.5577 30.1649 26.5577 29.9282C26.5577 29.6915 26.3659 29.4997 26.1292 29.4997H26.103C25.8663 29.4997 25.6744 29.6915 25.6744 29.9282C25.6744 30.1649 25.8663 30.3568 26.103 30.3568H26.1292ZM21.9179 30.3568C22.1546 30.3568 22.3465 30.1649 22.3465 29.9282C22.3465 29.6915 22.1546 29.4997 21.9179 29.4997H21.8656C21.6289 29.4997 21.4371 29.6915 21.4371 29.9282C21.4371 30.1649 21.6289 30.3568 21.8656 30.3568H21.9179ZM17.6806 30.3568C17.9172 30.3568 18.1091 30.1649 18.1091 29.9282C18.1091 29.6915 17.9172 29.4997 17.6806 29.4997H17.6282C17.3915 29.4997 17.1997 29.6915 17.1997 29.9282C17.1997 30.1649 17.3915 30.3568 17.6282 30.3568H17.6806ZM13.4432 30.3568C13.6799 30.3568 13.8717 30.1649 13.8717 29.9282C13.8717 29.6915 13.6799 29.4997 13.4432 29.4997H13.3909C13.1542 29.4997 12.9623 29.6915 12.9623 29.9282C12.9623 30.1649 13.1542 30.3568 13.3909 30.3568H13.4432ZM9.20578 30.3568C9.44248 30.3568 9.63436 30.1649 9.63436 29.9282C9.63436 29.6915 9.44248 29.4997 9.20578 29.4997H9.15347C8.91678 29.4997 8.7249 29.6915 8.7249 29.9282C8.7249 30.1649 8.91678 30.3568 9.15347 30.3568H9.20578ZM4.9684 30.3568C5.2051 30.3568 5.39697 30.1649 5.39697 29.9282C5.39697 29.6915 5.2051 29.4997 4.9684 29.4997H4.94224C4.70555 29.4997 4.51367 29.6915 4.51367 29.9282C4.51367 30.1649 4.70555 30.3568 4.94224 30.3568H4.9684Z" fill="#55555E"/>
<path fill-rule="evenodd" clip-rule="evenodd" d="M33.8894 0.523682H33.9467C34.1834 0.523908 34.3751 0.715969 34.3749 0.952662C34.3746 1.18936 34.1826 1.38105 33.9459 1.38082H33.8902C33.6535 1.38105 33.4615 1.18936 33.4612 0.952662C33.461 0.715969 33.6527 0.523908 33.8894 0.523682ZM29.8387 1.23418C29.8752 1.46804 29.7152 1.68723 29.4813 1.72374L29.4265 1.73236C29.1927 1.76934 28.9732 1.60979 28.9363 1.376C28.8993 1.14221 29.0588 0.922715 29.2926 0.885741L29.3491 0.876864C29.583 0.840346 29.8021 1.00032 29.8387 1.23418ZM37.9974 1.23418C38.0339 1.00032 38.2531 0.840346 38.487 0.876864L38.5435 0.885741C38.7773 0.922715 38.9368 1.14221 38.8998 1.376C38.8629 1.60979 38.6434 1.76934 38.4096 1.73236L38.3547 1.72374C38.1209 1.68723 37.9609 1.46804 37.9974 1.23418ZM42.4335 2.22143C42.5063 1.99624 42.748 1.87277 42.9732 1.94565L43.0275 1.96327C43.2525 2.0366 43.3755 2.27848 43.3022 2.50353C43.2289 2.72858 42.987 2.85158 42.7619 2.77825L42.7092 2.76115C42.4841 2.68827 42.3606 2.44663 42.4335 2.22143ZM25.4026 2.22143C25.4755 2.44663 25.352 2.68827 25.1268 2.76115L25.0742 2.77825C24.8491 2.85158 24.6072 2.72858 24.5339 2.50353C24.4606 2.27848 24.5836 2.0366 24.8086 1.96327L24.8629 1.94565C25.0881 1.87277 25.3297 1.99624 25.4026 2.22143ZM46.6581 3.89514C46.7655 3.68423 47.0236 3.60034 47.2345 3.70776L47.2853 3.73367C47.496 3.84151 47.5794 4.09973 47.4715 4.31043C47.3637 4.52114 47.1055 4.60453 46.8948 4.4967L46.8455 4.47154C46.6346 4.36412 46.5507 4.10606 46.6581 3.89514ZM21.178 3.89515C21.2854 4.10606 21.2015 4.36412 20.9906 4.47154L20.9413 4.4967C20.7306 4.60453 20.4724 4.52114 20.3646 4.31043C20.2567 4.09973 20.3401 3.84151 20.5508 3.73367L20.6016 3.70776C20.8125 3.60034 21.0706 3.68423 21.178 3.89515ZM17.2688 6.21147C17.4079 6.40298 17.3654 6.67099 17.1739 6.81008L17.1291 6.84262C16.9379 6.98209 16.6698 6.94012 16.5303 6.74887C16.3909 6.55763 16.4329 6.28954 16.6241 6.15008L16.6701 6.11656C16.8617 5.97746 17.1297 6.01996 17.2688 6.21147ZM50.5673 6.21147C50.7064 6.01996 50.9744 5.97747 51.1659 6.11656L51.212 6.15008C51.4032 6.28954 51.4452 6.55763 51.3058 6.74887C51.1663 6.94012 50.8982 6.98209 50.707 6.84262L50.6622 6.81008C50.4707 6.67099 50.4282 6.40298 50.5673 6.21147ZM13.7688 9.1096C13.936 9.27713 13.9358 9.54848 13.7682 9.71569L13.7291 9.75481C13.5619 9.92234 13.2906 9.9226 13.123 9.75539C12.9555 9.58819 12.9552 9.31683 13.1224 9.1493L13.1627 9.10901C13.3303 8.94181 13.6016 8.94207 13.7688 9.1096ZM54.0673 9.1096C54.2345 8.94207 54.5058 8.94181 54.6734 9.10901L54.7136 9.1493C54.8809 9.31683 54.8806 9.58819 54.7131 9.75539C54.5455 9.9226 54.2742 9.92234 54.107 9.75481L54.0679 9.71569C53.9003 9.54848 53.9001 9.27713 54.0673 9.1096ZM10.7623 12.5169C10.9535 12.6564 10.9955 12.9245 10.8561 13.1157L10.8235 13.1604C10.6844 13.3519 10.4164 13.3944 10.2249 13.2553C10.0334 13.1162 9.99089 12.8482 10.13 12.6567L10.1635 12.6107C10.303 12.4194 10.5711 12.3775 10.7623 12.5169ZM57.0738 12.5169C57.265 12.3775 57.5331 12.4194 57.6726 12.6107L57.7061 12.6567C57.8452 12.8482 57.8027 13.1162 57.6112 13.2553C57.4197 13.3944 57.1517 13.3519 57.0126 13.1604L56.98 13.1157C56.8406 12.9245 56.8826 12.6564 57.0738 12.5169ZM59.5122 16.3511C59.7229 16.2433 59.9812 16.3267 60.089 16.5374L60.1149 16.5882C60.2223 16.7991 60.1384 17.0571 59.9275 17.1646C59.7166 17.272 59.4585 17.1881 59.3511 16.9772L59.326 16.9279C59.2181 16.7172 59.3015 16.459 59.5122 16.3511ZM8.32386 16.3511C8.53456 16.459 8.61796 16.7172 8.51012 16.9279L8.48497 16.9772C8.37755 17.1881 8.11949 17.272 7.90857 17.1646C7.69766 17.0571 7.61376 16.7991 7.72119 16.5882L7.7471 16.5374C7.85493 16.3267 8.11316 16.2433 8.32386 16.3511ZM6.51695 20.5205C6.742 20.5938 6.865 20.8357 6.79168 21.0607L6.77457 21.1134C6.70169 21.3386 6.46006 21.4621 6.23486 21.3892C6.00967 21.3163 5.8862 21.0747 5.95908 20.8495L5.9767 20.7952C6.05002 20.5702 6.2919 20.4472 6.51695 20.5205ZM61.3191 20.5205C61.5442 20.4472 61.7861 20.5702 61.8594 20.7952L61.877 20.8495C61.9499 21.0747 61.8264 21.3163 61.6012 21.3892C61.376 21.4621 61.1344 21.3386 61.0615 21.1134L61.0444 21.0607C60.9711 20.8357 61.0941 20.5938 61.3191 20.5205ZM5.38943 24.9228C5.62321 24.9598 5.78276 25.1793 5.74579 25.4131L5.73717 25.4679C5.70065 25.7018 5.48147 25.8618 5.24761 25.8252C5.01375 25.7887 4.85377 25.5695 4.89029 25.3357L4.89917 25.2792C4.93614 25.0454 5.15564 24.8859 5.38943 24.9228ZM62.4467 24.9228C62.6805 24.8859 62.9 25.0454 62.9369 25.2792L62.9458 25.3357C62.9823 25.5695 62.8223 25.7887 62.5885 25.8252C62.3546 25.8618 62.1354 25.7018 62.0989 25.4679L62.0903 25.4131C62.0533 25.1793 62.2129 24.9598 62.4467 24.9228ZM4.96609 29.4478C5.20278 29.448 5.39448 29.6401 5.39425 29.8768V29.9324C5.39448 30.1691 5.20278 30.3612 4.96609 30.3614C4.7294 30.3617 4.53734 30.17 4.53711 29.9333V29.876C4.53734 29.6393 4.7294 29.4476 4.96609 29.4478ZM62.87 29.4478C63.1067 29.4476 63.2988 29.6393 63.299 29.876V29.9333C63.2988 30.17 63.1067 30.3617 62.87 30.3614C62.6333 30.3612 62.4416 30.1691 62.4418 29.9324V29.8768C62.4416 29.6401 62.6333 29.448 62.87 29.4478ZM5.24761 33.984C5.48147 33.9475 5.70065 34.1075 5.73717 34.3413L5.74579 34.3962C5.78276 34.6299 5.62321 34.8494 5.38943 34.8864C5.15564 34.9234 4.93614 34.7638 4.89917 34.53L4.89029 34.4736C4.85377 34.2397 5.01375 34.0205 5.24761 33.984ZM62.5885 33.984C62.8223 34.0205 62.9823 34.2397 62.9458 34.4736L62.9369 34.53C62.9 34.7638 62.6805 34.9234 62.4467 34.8864C62.2129 34.8494 62.0533 34.6299 62.0903 34.3962L62.0989 34.3413C62.1354 34.1075 62.3546 33.9475 62.5885 33.984ZM6.23486 38.42C6.46006 38.3472 6.70169 38.4706 6.77458 38.6958L6.79168 38.7485C6.865 38.9736 6.742 39.2154 6.51695 39.2888C6.2919 39.3621 6.05003 39.2391 5.9767 39.014L5.95908 38.9598C5.8862 38.7346 6.00967 38.4929 6.23486 38.42ZM61.6012 38.42C61.8264 38.4929 61.9499 38.7346 61.877 38.9598L61.8594 39.014C61.7861 39.2391 61.5442 39.3621 61.3191 39.2888C61.0941 39.2154 60.9711 38.9736 61.0444 38.7485L61.0615 38.6958C61.1344 38.4706 61.376 38.3472 61.6012 38.42ZM7.90857 42.6447C8.11949 42.5373 8.37755 42.6212 8.48497 42.8321L8.51013 42.8813C8.61796 43.092 8.53457 43.3503 8.32386 43.4581C8.11316 43.5659 7.85493 43.4825 7.7471 43.2718L7.72119 43.2211C7.61377 43.0102 7.69766 42.7521 7.90857 42.6447ZM59.9275 42.6447C60.1384 42.7521 60.2223 43.0102 60.1149 43.2211L60.089 43.2718C59.9812 43.4825 59.7229 43.5659 59.5122 43.4581C59.3015 43.3503 59.2181 43.092 59.326 42.8813L59.3511 42.8321C59.4585 42.6212 59.7166 42.5373 59.9275 42.6447ZM10.2249 46.5539C10.4164 46.4148 10.6844 46.4573 10.8235 46.6488L10.8561 46.6935C10.9955 46.8848 10.9535 47.1529 10.7623 47.2923C10.5711 47.4318 10.303 47.3898 10.1635 47.1986L10.13 47.1525C9.99089 46.961 10.0334 46.693 10.2249 46.5539ZM57.6112 46.5539C57.8027 46.693 57.8452 46.961 57.7061 47.1525L57.6726 47.1986C57.5331 47.3898 57.265 47.4318 57.0738 47.2923C56.8826 47.1529 56.8406 46.8848 56.98 46.6935L57.0126 46.6488C57.1517 46.4573 57.4197 46.4148 57.6112 46.5539ZM13.123 50.0538C13.2906 49.8866 13.5619 49.8869 13.7291 50.0544L13.7682 50.0936C13.9358 50.2608 13.936 50.5321 13.7688 50.6996C13.6016 50.8672 13.3303 50.8674 13.1627 50.7002L13.1224 50.6599C12.9552 50.4924 12.9555 50.2211 13.123 50.0538ZM54.7131 50.0538C54.8806 50.2211 54.8809 50.4924 54.7136 50.6599L54.6734 50.7002C54.5058 50.8674 54.2345 50.8672 54.0673 50.6996C53.9001 50.5321 53.9003 50.2608 54.0679 50.0936L54.107 50.0544C54.2742 49.8869 54.5455 49.8866 54.7131 50.0538ZM16.5303 53.0604C16.6698 52.8691 16.9379 52.8271 17.1291 52.9666L17.1739 52.9992C17.3654 53.1382 17.4079 53.4063 17.2688 53.5978C17.1297 53.7893 16.8617 53.8318 16.6701 53.6927L16.6241 53.6592C16.4329 53.5197 16.3909 53.2516 16.5303 53.0604ZM51.3058 53.0604C51.4452 53.2516 51.4032 53.5197 51.212 53.6592L51.1659 53.6927C50.9744 53.8318 50.7064 53.7893 50.5673 53.5978C50.4282 53.4063 50.4707 53.1383 50.6622 52.9992L50.707 52.9666C50.8982 52.8271 51.1663 52.8691 51.3058 53.0604ZM20.3646 55.4988C20.4724 55.2881 20.7306 55.2047 20.9413 55.3125L20.9906 55.3377C21.2015 55.4451 21.2854 55.7032 21.178 55.9141C21.0706 56.125 20.8125 56.2089 20.6016 56.1015L20.5508 56.0756C20.3401 55.9677 20.2567 55.7095 20.3646 55.4988ZM47.4715 55.4988C47.5794 55.7095 47.496 55.9677 47.2853 56.0756L47.2345 56.1015C47.0236 56.2089 46.7655 56.125 46.6581 55.9141C46.5507 55.7032 46.6346 55.4451 46.8455 55.3377L46.8948 55.3125C47.1055 55.2047 47.3637 55.2881 47.4715 55.4988ZM24.5339 57.3057C24.6072 57.0807 24.8491 56.9577 25.0742 57.031L25.1268 57.0481C25.352 57.121 25.4755 57.3626 25.4026 57.5878C25.3298 57.813 25.0881 57.9365 24.8629 57.8636L24.8086 57.846C24.5836 57.7726 24.4606 57.5308 24.5339 57.3057ZM43.3022 57.3057C43.3755 57.5308 43.2525 57.7726 43.0275 57.846L42.9732 57.8636C42.748 57.9365 42.5063 57.813 42.4335 57.5878C42.3606 57.3626 42.4841 57.121 42.7092 57.0481L42.7619 57.031C42.987 56.9577 43.2289 57.0807 43.3022 57.3057ZM28.9363 58.4332C28.9732 58.1995 29.1927 58.0399 29.4265 58.0769L29.4813 58.0855C29.7152 58.122 29.8752 58.3412 29.8387 58.5751C29.8021 58.8089 29.583 58.9689 29.3491 58.9324L29.2926 58.9235C29.0588 58.8865 28.8993 58.667 28.9363 58.4332ZM38.8998 58.4332C38.9368 58.667 38.7773 58.8865 38.5435 58.9235L38.487 58.9324C38.2531 58.9689 38.0339 58.8089 37.9974 58.5751C37.9609 58.3412 38.1209 58.122 38.3547 58.0855L38.4096 58.0769C38.6434 58.0399 38.8629 58.1995 38.8998 58.4332ZM33.4612 58.8566C33.4615 58.6199 33.6535 58.4282 33.8902 58.4284H33.9459C34.1826 58.4282 34.3746 58.6199 34.3749 58.8566C34.3751 59.0933 34.1834 59.2853 33.9467 59.2856H33.8894C33.6527 59.2853 33.461 59.0933 33.4612 58.8566Z" fill="white"/>
<path d="M34.8711 58.8569C34.8711 59.3829 34.4447 59.8093 33.9187 59.8093C33.3927 59.8093 32.9663 59.3829 32.9663 58.8569C32.9663 58.331 33.3927 57.9046 33.9187 57.9046C34.4447 57.9046 34.8711 58.331 34.8711 58.8569Z" fill="#6966FF"/>
<path d="M62.8703 30.8572C62.3444 30.8572 61.918 30.4308 61.918 29.9048C61.918 29.3788 62.3444 28.9524 62.8704 28.9524C63.3963 28.9524 63.8227 29.3788 63.8227 29.9048C63.8227 30.4308 63.3963 30.8572 62.8703 30.8572Z" fill="#6966FF"/>
<path d="M34.8711 0.95216C34.8711 1.47815 34.4447 1.90454 33.9187 1.90454C33.3927 1.90454 32.9663 1.47815 32.9663 0.95216C32.9663 0.426175 33.3927 -0.000221024 33.9187 -0.000220978C34.4447 -0.000220932 34.8711 0.426175 34.8711 0.95216Z" fill="#6966FF"/>
<path d="M4.96605 30.8572C4.44007 30.8572 4.01367 30.4308 4.01367 29.9048C4.01367 29.3788 4.44007 28.9524 4.96605 28.9524C5.49204 28.9524 5.91843 29.3788 5.91843 29.9048C5.91843 30.4308 5.49204 30.8572 4.96605 30.8572Z" fill="#6966FF"/>
</g>
<defs>
<filter id="filter0_d_22125_3097" x="0" y="-0.000244141" width="68" height="68.0002" filterUnits="userSpaceOnUse" color-interpolation-filters="sRGB">
<feFlood flood-opacity="0" result="BackgroundImageFix"/>
<feColorMatrix in="SourceAlpha" type="matrix" values="0 0 0 0 0 0 0 0 0 0 0 0 0 0 0 0 0 0 127 0" result="hardAlpha"/>
<feOffset dy="4"/>
<feGaussianBlur stdDeviation="2"/>
<feComposite in2="hardAlpha" operator="out"/>
<feColorMatrix type="matrix" values="0 0 0 0 0 0 0 0 0 0 0 0 0 0 0 0 0 0 0.25 0"/>
<feBlend mode="normal" in2="BackgroundImageFix" result="effect1_dropShadow_22125_3097"/>
<feBlend mode="normal" in="SourceGraphic" in2="effect1_dropShadow_22125_3097" result="shape"/>
</filter>
<linearGradient id="paint0_linear_22125_3097" x1="44.8985" y1="45.0525" x2="32.0995" y2="27.4666" gradientUnits="userSpaceOnUse">
<stop stop-color="#6966FF"/>
<stop offset="1" stop-color="#6966FF" stop-opacity="0.36"/>
</linearGradient>
</defs>
</svg>
