<svg width="32" height="32" viewBox="0 0 32 32" fill="none" xmlns="http://www.w3.org/2000/svg">
<path d="M11.5475 25.7512C20.6042 25.7512 25.5578 18.2479 25.5578 11.741C25.5578 11.5279 25.5578 11.3157 25.5434 11.1045C26.507 10.4075 27.3389 9.54441 28 8.55573C27.1014 8.95413 26.148 9.21528 25.1718 9.33045C26.1998 8.71514 26.9692 7.74723 27.3366 6.60693C26.3701 7.18054 25.3126 7.58475 24.2099 7.80213C23.4675 7.01271 22.4856 6.48997 21.4162 6.31481C20.3468 6.13966 19.2494 6.32184 18.294 6.83318C17.3385 7.34452 16.5782 8.1565 16.1307 9.14348C15.6833 10.1305 15.5735 11.2374 15.8186 12.293C13.8609 12.1948 11.9458 11.686 10.1975 10.7997C8.44915 9.91343 6.90676 8.66939 5.6704 7.14837C5.04073 8.23236 4.84787 9.5156 5.1311 10.7368C5.41433 11.958 6.15234 13.0253 7.19488 13.7215C6.41123 13.6985 5.64465 13.4871 4.96 13.1052V13.1676C4.96031 14.3044 5.35385 15.4062 6.07387 16.2859C6.79389 17.1657 7.79606 17.7693 8.9104 17.9944C8.18548 18.1922 7.42487 18.2211 6.68704 18.0789C7.00181 19.0573 7.61443 19.9128 8.43924 20.5259C9.26405 21.139 10.2598 21.479 11.2874 21.4985C10.2664 22.3009 9.09731 22.8942 7.84687 23.2444C6.59643 23.5947 5.28921 23.6949 4 23.5394C6.25183 24.9844 8.87192 25.7509 11.5475 25.7474" fill="white"/>
</svg>
