<svg width="30" height="32" viewBox="0 0 30 32" fill="none" xmlns="http://www.w3.org/2000/svg">
<path fill-rule="evenodd" clip-rule="evenodd" d="M22.3953 0.388672H29.2037L7.28324 31.0895H0.587891L22.3953 0.388672ZM14.3971 9.43517L7.98073 0.388672H1.14589L11.0494 14.3697L14.3971 9.43517ZM12.7186 9.45265L11.025 11.9491L3.81299 1.76786H7.26807L12.7186 9.45265ZM3.25927 29.7103H6.57332L26.5243 1.76786H23.1074L3.25927 29.7103Z" fill="white"/>
<path fill-rule="evenodd" clip-rule="evenodd" d="M23.8183 29.6842C23.8645 29.7484 23.9389 29.7865 24.018 29.7865H27.203L19.636 19.0414C19.5378 18.9019 19.3309 18.9022 19.233 19.0419L17.8152 21.0674C17.7551 21.1532 17.7559 21.2675 17.8171 21.3525L23.8183 29.6842ZM16.0234 21.222L23.1857 31.1657H29.8611L19.4307 16.3545L16.0234 21.222Z" fill="url(#paint0_linear_22102_3182)"/>
<defs>
<linearGradient id="paint0_linear_22102_3182" x1="24.6897" y1="28.8344" x2="13.6571" y2="13.6755" gradientUnits="userSpaceOnUse">
<stop stop-color="#6966FF"/>
<stop offset="1" stop-color="#6966FF" stop-opacity="0.36"/>
</linearGradient>
</defs>
</svg>
